%TF.GenerationSoftware,KiCad,Pcbnew,5.1.10*%
%TF.CreationDate,2021-06-27T22:38:49+02:00*%
%TF.ProjectId,fc_v2,66635f76-322e-46b6-9963-61645f706362,rev?*%
%TF.SameCoordinates,Original*%
%TF.FileFunction,Profile,NP*%
%FSLAX46Y46*%
G04 Gerber Fmt 4.6, Leading zero omitted, Abs format (unit mm)*
G04 Created by KiCad (PCBNEW 5.1.10) date 2021-06-27 22:38:49*
%MOMM*%
%LPD*%
G01*
G04 APERTURE LIST*
%TA.AperFunction,Profile*%
%ADD10C,0.150000*%
%TD*%
%TA.AperFunction,Profile*%
%ADD11C,0.100000*%
%TD*%
G04 APERTURE END LIST*
D10*
X146304000Y-153416000D02*
G75*
G02*
X148336000Y-155448000I0J-2032000D01*
G01*
X130556000Y-155448000D02*
G75*
G02*
X132588000Y-153416000I2032000J0D01*
G01*
X148336000Y-63500000D02*
G75*
G02*
X146304000Y-65532000I-2032000J0D01*
G01*
X132588000Y-65532000D02*
G75*
G02*
X130556000Y-63500000I0J2032000D01*
G01*
D11*
X130556000Y-156464000D02*
X130556000Y-155448000D01*
X122936000Y-157988000D02*
G75*
G02*
X121412000Y-156464000I0J1524000D01*
G01*
X122936000Y-157988000D02*
X129032000Y-157988000D01*
X130556000Y-156464000D02*
G75*
G02*
X129032000Y-157988000I-1524000J0D01*
G01*
X148336000Y-156464000D02*
X148336000Y-155448000D01*
X149860000Y-157988000D02*
G75*
G02*
X148336000Y-156464000I0J1524000D01*
G01*
X149860000Y-157988000D02*
X155956000Y-157988000D01*
X157480000Y-156464000D02*
G75*
G02*
X155956000Y-157988000I-1524000J0D01*
G01*
X148336000Y-62484000D02*
X148336000Y-63500000D01*
X155956000Y-60960000D02*
G75*
G02*
X157480000Y-62484000I0J-1524000D01*
G01*
X155956000Y-60960000D02*
X149860000Y-60960000D01*
X148336000Y-62484000D02*
G75*
G02*
X149860000Y-60960000I1524000J0D01*
G01*
X130556000Y-63500000D02*
X130556000Y-62484000D01*
X129032000Y-60960000D02*
X122936000Y-60960000D01*
X129032000Y-60960000D02*
G75*
G02*
X130556000Y-62484000I0J-1524000D01*
G01*
X121412000Y-62484000D02*
G75*
G02*
X122936000Y-60960000I1524000J0D01*
G01*
D10*
X146304000Y-153416000D02*
X132588000Y-153416000D01*
X132588000Y-65532000D02*
X146304000Y-65532000D01*
D11*
X121412000Y-62484000D02*
X121412000Y-134620000D01*
X157480000Y-156464000D02*
X157480000Y-62484000D01*
X121412000Y-134620000D02*
X121412000Y-156464000D01*
M02*
