M48
; DRILL file {KiCad 5.1.10} date Sun Jun 27 22:39:26 2021
; FORMAT={-:-/ absolute / metric / decimal}
; #@! TF.CreationDate,2021-06-27T22:39:26+02:00
; #@! TF.GenerationSoftware,Kicad,Pcbnew,5.1.10
; #@! TF.FileFunction,Plated,1,2,PTH
FMAT,2
METRIC
T1C0.400
T2C0.762
T3C0.900
T4C0.950
T5C1.000
T6C1.100
T7C2.200
T8C2.700
%
G90
G05
T1
X122.555Y-120.65
X124.206Y-70.993
X124.334Y-63.5
X124.334Y-155.448
X124.46Y-99.695
X124.817Y-62.333
X124.817Y-64.667
X124.817Y-154.281
X124.817Y-156.615
X124.841Y-77.47
X124.841Y-107.188
X124.861Y-81.3
X125.984Y-61.85
X125.984Y-65.15
X125.984Y-153.798
X125.984Y-157.098
X126.746Y-89.027
X127.0Y-85.979
X127.127Y-67.818
X127.151Y-62.333
X127.151Y-64.667
X127.151Y-154.281
X127.151Y-156.615
X127.634Y-63.5
X127.634Y-155.448
X128.016Y-80.01
X128.016Y-150.368
X128.143Y-91.059
X128.651Y-86.995
X128.778Y-121.793
X129.159Y-72.263
X129.667Y-139.827
X130.556Y-93.98
X130.556Y-108.839
X130.556Y-136.144
X131.518Y-113.719
X131.572Y-123.444
X131.953Y-78.613
X132.588Y-142.24
X133.096Y-130.683
X133.35Y-105.41
X133.477Y-120.777
X133.604Y-117.348
X133.604Y-123.952
X133.858Y-110.617
X134.366Y-69.85
X135.001Y-111.76
X135.636Y-81.28
X135.89Y-91.948
X135.89Y-94.361
X136.144Y-73.66
X136.652Y-86.868
X137.16Y-101.092
X137.287Y-112.649
X137.668Y-138.684
X137.698Y-76.17
X137.765Y-81.885
X137.765Y-89.505
X138.176Y-93.98
X138.206Y-68.55
X138.684Y-70.612
X138.684Y-78.232
X138.699Y-83.835
X138.699Y-91.455
X139.7Y-73.66
X139.7Y-86.868
X140.208Y-100.584
X141.224Y-93.98
X142.037Y-68.478
X142.037Y-69.952
X142.037Y-71.374
X142.037Y-76.098
X142.037Y-77.572
X142.037Y-78.994
X142.037Y-81.813
X142.037Y-83.287
X142.037Y-84.709
X142.037Y-89.433
X142.037Y-90.907
X142.037Y-92.329
X142.24Y-121.92
X142.24Y-124.968
X142.367Y-128.016
X142.875Y-68.478
X142.875Y-69.952
X142.875Y-71.374
X142.875Y-76.098
X142.875Y-77.572
X142.875Y-78.994
X142.875Y-81.813
X142.875Y-83.287
X142.875Y-84.709
X142.875Y-89.433
X142.875Y-90.907
X142.875Y-92.329
X143.51Y-138.43
X143.713Y-68.478
X143.713Y-69.952
X143.713Y-71.374
X143.713Y-76.098
X143.713Y-77.572
X143.713Y-78.994
X143.713Y-81.813
X143.713Y-83.287
X143.713Y-84.709
X143.713Y-89.433
X143.713Y-90.907
X143.713Y-92.329
X143.891Y-108.839
X144.272Y-115.316
X144.464Y-128.332
X144.653Y-140.716
X144.78Y-120.396
X146.042Y-130.802
X146.095Y-116.033
X146.304Y-135.382
X146.558Y-127.762
X147.066Y-105.791
X147.32Y-73.152
X147.828Y-86.868
X147.863Y-104.613
X148.336Y-106.172
X148.336Y-131.064
X148.844Y-103.886
X149.098Y-91.948
X149.352Y-79.756
X149.352Y-115.062
X149.606Y-101.473
X149.606Y-122.682
X149.86Y-73.152
X149.86Y-86.36
X151.258Y-63.5
X151.258Y-155.448
X151.384Y-80.772
X151.384Y-131.064
X151.741Y-62.333
X151.741Y-64.667
X151.741Y-154.281
X151.741Y-156.615
X152.908Y-61.85
X152.908Y-65.15
X152.908Y-101.854
X152.908Y-153.798
X152.908Y-157.098
X153.289Y-97.282
X154.075Y-62.333
X154.075Y-64.667
X154.075Y-154.281
X154.075Y-156.615
X154.558Y-63.5
X154.558Y-155.448
X155.702Y-103.886
X155.956Y-101.6
X155.956Y-114.808
X156.083Y-96.139
X156.464Y-79.248
X156.464Y-90.932
T2
X127.191Y-144.78
X132.19Y-144.78
T3
X124.46Y-102.87
X125.73Y-102.87
X127.0Y-102.87
X128.27Y-102.87
T4
X126.365Y-124.199
X126.365Y-126.699
X126.365Y-129.199
X126.365Y-131.699
T5
X124.46Y-147.955
X124.46Y-150.455
X125.095Y-109.347
X125.095Y-111.887
X125.095Y-114.427
X127.635Y-109.347
X127.635Y-111.887
X127.635Y-114.427
X135.89Y-118.11
X135.89Y-120.65
X135.89Y-123.19
X135.89Y-125.73
X135.89Y-128.27
X135.89Y-130.81
X135.89Y-133.35
X135.89Y-135.89
X146.685Y-139.7
X146.685Y-142.24
X151.13Y-97.155
X151.13Y-99.695
X152.4Y-69.215
X152.4Y-71.755
X152.4Y-76.2
X152.4Y-78.74
X152.4Y-83.185
X152.4Y-85.725
X152.4Y-90.17
X152.4Y-92.71
T6
X125.73Y-96.52
X128.27Y-96.52
X130.81Y-96.52
X133.35Y-96.52
X135.89Y-96.52
X138.43Y-96.52
X139.7Y-118.11
X139.7Y-120.65
X139.7Y-123.19
X139.7Y-125.73
X139.7Y-128.27
X139.7Y-130.81
X139.7Y-133.35
X139.7Y-135.89
X139.7Y-138.43
X139.7Y-140.97
X139.7Y-143.51
X139.7Y-146.05
X139.7Y-148.59
X139.7Y-151.13
X140.97Y-96.52
X142.24Y-118.11
X142.24Y-148.59
X143.51Y-96.52
X144.78Y-118.11
X146.05Y-96.52
X147.32Y-118.11
X149.86Y-118.11
X152.4Y-118.11
X154.94Y-118.11
X154.94Y-120.65
X154.94Y-123.19
X154.94Y-125.73
X154.94Y-128.27
X154.94Y-130.81
X154.94Y-133.35
X154.94Y-135.89
X154.94Y-138.43
X154.94Y-140.97
X154.94Y-143.51
X154.94Y-146.05
X154.94Y-148.59
X154.94Y-151.13
T7
X125.984Y-63.5
X125.984Y-155.448
X152.908Y-63.5
X152.908Y-155.448
T8
X151.765Y-106.68
X151.765Y-111.68
T0
M30
