%TF.GenerationSoftware,KiCad,Pcbnew,5.1.10*%
%TF.CreationDate,2021-06-27T22:38:49+02:00*%
%TF.ProjectId,fc_v2,66635f76-322e-46b6-9963-61645f706362,rev?*%
%TF.SameCoordinates,Original*%
%TF.FileFunction,Legend,Bot*%
%TF.FilePolarity,Positive*%
%FSLAX46Y46*%
G04 Gerber Fmt 4.6, Leading zero omitted, Abs format (unit mm)*
G04 Created by KiCad (PCBNEW 5.1.10) date 2021-06-27 22:38:49*
%MOMM*%
%LPD*%
G01*
G04 APERTURE LIST*
%ADD10C,0.120000*%
%ADD11C,0.010000*%
%ADD12C,0.150000*%
%ADD13C,0.127000*%
%ADD14C,0.200000*%
%ADD15O,2.000000X1.700000*%
%ADD16O,1.700000X1.700000*%
%ADD17R,1.700000X1.700000*%
%ADD18R,1.000000X1.000000*%
%ADD19C,0.700000*%
%ADD20C,4.400000*%
%ADD21R,0.800000X0.900000*%
%ADD22C,1.524000*%
%ADD23O,1.950000X1.700000*%
%ADD24C,1.800000*%
%ADD25R,1.310000X0.450000*%
%ADD26R,2.650000X4.000000*%
%ADD27C,0.800000*%
%ADD28C,3.800000*%
%ADD29R,3.800000X3.800000*%
%ADD30R,1.070000X1.800000*%
%ADD31O,1.070000X1.800000*%
%ADD32R,2.500000X2.500000*%
G04 APERTURE END LIST*
D10*
%TO.C,JP2*%
X122000000Y-145395000D02*
X127970000Y-145395000D01*
X127970000Y-145395000D02*
X127970000Y-153015000D01*
X127970000Y-153015000D02*
X122000000Y-153015000D01*
X122000000Y-153015000D02*
X122000000Y-145395000D01*
X122010000Y-148705000D02*
X122760000Y-148705000D01*
X122760000Y-148705000D02*
X122760000Y-149705000D01*
X122760000Y-149705000D02*
X122010000Y-149705000D01*
X122010000Y-149705000D02*
X122010000Y-148705000D01*
X122010000Y-145405000D02*
X122760000Y-145405000D01*
X122760000Y-145405000D02*
X122760000Y-147205000D01*
X122760000Y-147205000D02*
X122010000Y-147205000D01*
X122010000Y-147205000D02*
X122010000Y-145405000D01*
X122010000Y-151205000D02*
X122760000Y-151205000D01*
X122760000Y-151205000D02*
X122760000Y-153005000D01*
X122760000Y-153005000D02*
X122010000Y-153005000D01*
X122010000Y-153005000D02*
X122010000Y-151205000D01*
X124260000Y-145405000D02*
X124260000Y-146155000D01*
X124260000Y-146155000D02*
X127210000Y-146155000D01*
X127210000Y-146155000D02*
X127210000Y-149205000D01*
X124260000Y-153005000D02*
X124260000Y-152255000D01*
X124260000Y-152255000D02*
X127210000Y-152255000D01*
X127210000Y-152255000D02*
X127210000Y-149205000D01*
X121710000Y-146355000D02*
X121710000Y-145105000D01*
X121710000Y-145105000D02*
X122960000Y-145105000D01*
%TO.C,U17*%
X124460000Y-98135000D02*
X125210000Y-98135000D01*
X124460000Y-98135000D02*
X123710000Y-98135000D01*
X124460000Y-101255000D02*
X125210000Y-101255000D01*
X124460000Y-101255000D02*
X122610000Y-101255000D01*
%TO.C,D11*%
X125989000Y-108292000D02*
X125989000Y-106592000D01*
X125989000Y-106592000D02*
X129139000Y-106592000D01*
X125989000Y-108292000D02*
X129139000Y-108292000D01*
%TO.C,D9*%
X122052000Y-120230000D02*
X122052000Y-118530000D01*
X122052000Y-118530000D02*
X125202000Y-118530000D01*
X122052000Y-120230000D02*
X125202000Y-120230000D01*
%TO.C,D4*%
X144995000Y-151497000D02*
X143295000Y-151497000D01*
X143295000Y-151497000D02*
X143295000Y-148347000D01*
X144995000Y-151497000D02*
X144995000Y-148347000D01*
%TO.C,D1*%
X132549000Y-107682000D02*
X130849000Y-107682000D01*
X130849000Y-107682000D02*
X130849000Y-104532000D01*
X132549000Y-107682000D02*
X132549000Y-104532000D01*
%TO.C,JP1*%
X148015000Y-138370000D02*
X146685000Y-138370000D01*
X148015000Y-139700000D02*
X148015000Y-138370000D01*
X148015000Y-140970000D02*
X145355000Y-140970000D01*
X145355000Y-140970000D02*
X145355000Y-143570000D01*
X148015000Y-140970000D02*
X148015000Y-143570000D01*
X148015000Y-143570000D02*
X145355000Y-143570000D01*
%TO.C,Q1*%
X132517000Y-143127000D02*
X131587000Y-143127000D01*
X129357000Y-143127000D02*
X130287000Y-143127000D01*
X129357000Y-143127000D02*
X129357000Y-140967000D01*
X132517000Y-143127000D02*
X132517000Y-141667000D01*
%TO.C,C9*%
X123937752Y-104675000D02*
X123415248Y-104675000D01*
X123937752Y-106145000D02*
X123415248Y-106145000D01*
%TO.C,J2*%
X129115000Y-134549000D02*
X127865000Y-134549000D01*
X129115000Y-133299000D02*
X129115000Y-134549000D01*
X123615000Y-122399000D02*
X123615000Y-127949000D01*
X126565000Y-122399000D02*
X123615000Y-122399000D01*
X126565000Y-121649000D02*
X126565000Y-122399000D01*
X123615000Y-133499000D02*
X123615000Y-127949000D01*
X126565000Y-133499000D02*
X123615000Y-133499000D01*
X126565000Y-134249000D02*
X126565000Y-133499000D01*
X128815000Y-121649000D02*
X128815000Y-123449000D01*
X128065000Y-121649000D02*
X128815000Y-121649000D01*
X128065000Y-123449000D02*
X128065000Y-121649000D01*
X128815000Y-123449000D02*
X128065000Y-123449000D01*
X128815000Y-132449000D02*
X128815000Y-134249000D01*
X128065000Y-132449000D02*
X128815000Y-132449000D01*
X128065000Y-134249000D02*
X128065000Y-132449000D01*
X128815000Y-134249000D02*
X128065000Y-134249000D01*
X128815000Y-124949000D02*
X128815000Y-130949000D01*
X128065000Y-124949000D02*
X128815000Y-124949000D01*
X128065000Y-130949000D02*
X128065000Y-124949000D01*
X128815000Y-130949000D02*
X128065000Y-130949000D01*
X128825000Y-121639000D02*
X128825000Y-134259000D01*
X122855000Y-121639000D02*
X128825000Y-121639000D01*
X122855000Y-134259000D02*
X122855000Y-121639000D01*
X128825000Y-134259000D02*
X122855000Y-134259000D01*
D11*
%TO.C,H6*%
G36*
X124316055Y-68186061D02*
G01*
X124212308Y-68186431D01*
X124127231Y-68187307D01*
X124057459Y-68188830D01*
X123999628Y-68191140D01*
X123950373Y-68194379D01*
X123906330Y-68198688D01*
X123864134Y-68204208D01*
X123820420Y-68211080D01*
X123812300Y-68212442D01*
X123690821Y-68237349D01*
X123587969Y-68268768D01*
X123497299Y-68309151D01*
X123412365Y-68360950D01*
X123401085Y-68368882D01*
X123317879Y-68436141D01*
X123252213Y-68508787D01*
X123196440Y-68595476D01*
X123189322Y-68608594D01*
X123155820Y-68680667D01*
X123129759Y-68759086D01*
X123110006Y-68848799D01*
X123095424Y-68954751D01*
X123086598Y-69056250D01*
X123078995Y-69215890D01*
X123080783Y-69354655D01*
X123092748Y-69475565D01*
X123115675Y-69581644D01*
X123150351Y-69675912D01*
X123197559Y-69761392D01*
X123258087Y-69841105D01*
X123303207Y-69889518D01*
X123360428Y-69943706D01*
X123411884Y-69983979D01*
X123466719Y-70016986D01*
X123503981Y-70035568D01*
X123549980Y-70058396D01*
X123585720Y-70078180D01*
X123606018Y-70091951D01*
X123608756Y-70095593D01*
X123602573Y-70108298D01*
X123584691Y-70140781D01*
X123556318Y-70190948D01*
X123518662Y-70256699D01*
X123472930Y-70335939D01*
X123420330Y-70426569D01*
X123362069Y-70526493D01*
X123299355Y-70633613D01*
X123279703Y-70667093D01*
X123215553Y-70776468D01*
X123155197Y-70879661D01*
X123099885Y-70974516D01*
X123050865Y-71058877D01*
X123009388Y-71130586D01*
X122976704Y-71187488D01*
X122954061Y-71227426D01*
X122942711Y-71248243D01*
X122941724Y-71250357D01*
X122940556Y-71256606D01*
X122944075Y-71261534D01*
X122954828Y-71265266D01*
X122975361Y-71267927D01*
X123008221Y-71269642D01*
X123055955Y-71270536D01*
X123121110Y-71270734D01*
X123206233Y-71270361D01*
X123313871Y-71269542D01*
X123329912Y-71269407D01*
X123726681Y-71266050D01*
X123971442Y-70821550D01*
X124044523Y-70689955D01*
X124108686Y-70576760D01*
X124163435Y-70482797D01*
X124208276Y-70408901D01*
X124242711Y-70355904D01*
X124266247Y-70324639D01*
X124268390Y-70322309D01*
X124310694Y-70285413D01*
X124362486Y-70250252D01*
X124393463Y-70233611D01*
X124427372Y-70219029D01*
X124459514Y-70208987D01*
X124496300Y-70202433D01*
X124544140Y-70198311D01*
X124609443Y-70195568D01*
X124628275Y-70195002D01*
X124790200Y-70190349D01*
X124790200Y-71272400D01*
X125501400Y-71272400D01*
X125501180Y-70043675D01*
X125501085Y-69831995D01*
X125500867Y-69644248D01*
X125500506Y-69478962D01*
X125499981Y-69334671D01*
X125499685Y-69282509D01*
X124828300Y-69282509D01*
X124828300Y-69608700D01*
X124506783Y-69608700D01*
X124413262Y-69608146D01*
X124324374Y-69606589D01*
X124244577Y-69604183D01*
X124178329Y-69601086D01*
X124130087Y-69597453D01*
X124110311Y-69594843D01*
X124022894Y-69571014D01*
X123953627Y-69534143D01*
X123901266Y-69482412D01*
X123864564Y-69414001D01*
X123842277Y-69327093D01*
X123833158Y-69219869D01*
X123832790Y-69189600D01*
X123838286Y-69087358D01*
X123854193Y-68999180D01*
X123879639Y-68928829D01*
X123901278Y-68893936D01*
X123946426Y-68852957D01*
X124011189Y-68820533D01*
X124096489Y-68796473D01*
X124203249Y-68780585D01*
X124332392Y-68772678D01*
X124484842Y-68772560D01*
X124486365Y-68772595D01*
X124559228Y-68774510D01*
X124611693Y-68776899D01*
X124648760Y-68780573D01*
X124675430Y-68786342D01*
X124696702Y-68795017D01*
X124717577Y-68807407D01*
X124722951Y-68810937D01*
X124769924Y-68853525D01*
X124801362Y-68900671D01*
X124809621Y-68919106D01*
X124816000Y-68938350D01*
X124820739Y-68961828D01*
X124824080Y-68992964D01*
X124826265Y-69035184D01*
X124827535Y-69091910D01*
X124828132Y-69166567D01*
X124828298Y-69262580D01*
X124828300Y-69282509D01*
X125499685Y-69282509D01*
X125499273Y-69209906D01*
X125498362Y-69103197D01*
X125497226Y-69013077D01*
X125495847Y-68938077D01*
X125494203Y-68876728D01*
X125492275Y-68827562D01*
X125490043Y-68789110D01*
X125487486Y-68759903D01*
X125484584Y-68738474D01*
X125483151Y-68730935D01*
X125445107Y-68609923D01*
X125385732Y-68498459D01*
X125307800Y-68399477D01*
X125214084Y-68315911D01*
X125107355Y-68250695D01*
X124990388Y-68206763D01*
X124986902Y-68205844D01*
X124962018Y-68200557D01*
X124930275Y-68196265D01*
X124889041Y-68192873D01*
X124835687Y-68190285D01*
X124767581Y-68188405D01*
X124682092Y-68187138D01*
X124576590Y-68186389D01*
X124448444Y-68186061D01*
X124441836Y-68186055D01*
X124316055Y-68186061D01*
G37*
X124316055Y-68186061D02*
X124212308Y-68186431D01*
X124127231Y-68187307D01*
X124057459Y-68188830D01*
X123999628Y-68191140D01*
X123950373Y-68194379D01*
X123906330Y-68198688D01*
X123864134Y-68204208D01*
X123820420Y-68211080D01*
X123812300Y-68212442D01*
X123690821Y-68237349D01*
X123587969Y-68268768D01*
X123497299Y-68309151D01*
X123412365Y-68360950D01*
X123401085Y-68368882D01*
X123317879Y-68436141D01*
X123252213Y-68508787D01*
X123196440Y-68595476D01*
X123189322Y-68608594D01*
X123155820Y-68680667D01*
X123129759Y-68759086D01*
X123110006Y-68848799D01*
X123095424Y-68954751D01*
X123086598Y-69056250D01*
X123078995Y-69215890D01*
X123080783Y-69354655D01*
X123092748Y-69475565D01*
X123115675Y-69581644D01*
X123150351Y-69675912D01*
X123197559Y-69761392D01*
X123258087Y-69841105D01*
X123303207Y-69889518D01*
X123360428Y-69943706D01*
X123411884Y-69983979D01*
X123466719Y-70016986D01*
X123503981Y-70035568D01*
X123549980Y-70058396D01*
X123585720Y-70078180D01*
X123606018Y-70091951D01*
X123608756Y-70095593D01*
X123602573Y-70108298D01*
X123584691Y-70140781D01*
X123556318Y-70190948D01*
X123518662Y-70256699D01*
X123472930Y-70335939D01*
X123420330Y-70426569D01*
X123362069Y-70526493D01*
X123299355Y-70633613D01*
X123279703Y-70667093D01*
X123215553Y-70776468D01*
X123155197Y-70879661D01*
X123099885Y-70974516D01*
X123050865Y-71058877D01*
X123009388Y-71130586D01*
X122976704Y-71187488D01*
X122954061Y-71227426D01*
X122942711Y-71248243D01*
X122941724Y-71250357D01*
X122940556Y-71256606D01*
X122944075Y-71261534D01*
X122954828Y-71265266D01*
X122975361Y-71267927D01*
X123008221Y-71269642D01*
X123055955Y-71270536D01*
X123121110Y-71270734D01*
X123206233Y-71270361D01*
X123313871Y-71269542D01*
X123329912Y-71269407D01*
X123726681Y-71266050D01*
X123971442Y-70821550D01*
X124044523Y-70689955D01*
X124108686Y-70576760D01*
X124163435Y-70482797D01*
X124208276Y-70408901D01*
X124242711Y-70355904D01*
X124266247Y-70324639D01*
X124268390Y-70322309D01*
X124310694Y-70285413D01*
X124362486Y-70250252D01*
X124393463Y-70233611D01*
X124427372Y-70219029D01*
X124459514Y-70208987D01*
X124496300Y-70202433D01*
X124544140Y-70198311D01*
X124609443Y-70195568D01*
X124628275Y-70195002D01*
X124790200Y-70190349D01*
X124790200Y-71272400D01*
X125501400Y-71272400D01*
X125501180Y-70043675D01*
X125501085Y-69831995D01*
X125500867Y-69644248D01*
X125500506Y-69478962D01*
X125499981Y-69334671D01*
X125499685Y-69282509D01*
X124828300Y-69282509D01*
X124828300Y-69608700D01*
X124506783Y-69608700D01*
X124413262Y-69608146D01*
X124324374Y-69606589D01*
X124244577Y-69604183D01*
X124178329Y-69601086D01*
X124130087Y-69597453D01*
X124110311Y-69594843D01*
X124022894Y-69571014D01*
X123953627Y-69534143D01*
X123901266Y-69482412D01*
X123864564Y-69414001D01*
X123842277Y-69327093D01*
X123833158Y-69219869D01*
X123832790Y-69189600D01*
X123838286Y-69087358D01*
X123854193Y-68999180D01*
X123879639Y-68928829D01*
X123901278Y-68893936D01*
X123946426Y-68852957D01*
X124011189Y-68820533D01*
X124096489Y-68796473D01*
X124203249Y-68780585D01*
X124332392Y-68772678D01*
X124484842Y-68772560D01*
X124486365Y-68772595D01*
X124559228Y-68774510D01*
X124611693Y-68776899D01*
X124648760Y-68780573D01*
X124675430Y-68786342D01*
X124696702Y-68795017D01*
X124717577Y-68807407D01*
X124722951Y-68810937D01*
X124769924Y-68853525D01*
X124801362Y-68900671D01*
X124809621Y-68919106D01*
X124816000Y-68938350D01*
X124820739Y-68961828D01*
X124824080Y-68992964D01*
X124826265Y-69035184D01*
X124827535Y-69091910D01*
X124828132Y-69166567D01*
X124828298Y-69262580D01*
X124828300Y-69282509D01*
X125499685Y-69282509D01*
X125499273Y-69209906D01*
X125498362Y-69103197D01*
X125497226Y-69013077D01*
X125495847Y-68938077D01*
X125494203Y-68876728D01*
X125492275Y-68827562D01*
X125490043Y-68789110D01*
X125487486Y-68759903D01*
X125484584Y-68738474D01*
X125483151Y-68730935D01*
X125445107Y-68609923D01*
X125385732Y-68498459D01*
X125307800Y-68399477D01*
X125214084Y-68315911D01*
X125107355Y-68250695D01*
X124990388Y-68206763D01*
X124986902Y-68205844D01*
X124962018Y-68200557D01*
X124930275Y-68196265D01*
X124889041Y-68192873D01*
X124835687Y-68190285D01*
X124767581Y-68188405D01*
X124682092Y-68187138D01*
X124576590Y-68186389D01*
X124448444Y-68186061D01*
X124441836Y-68186055D01*
X124316055Y-68186061D01*
G36*
X126571375Y-68186450D02*
G01*
X126468400Y-68198442D01*
X126363345Y-68231928D01*
X126260915Y-68283922D01*
X126165812Y-68351442D01*
X126082742Y-68431502D01*
X126016407Y-68521118D01*
X126001087Y-68548250D01*
X125987171Y-68574206D01*
X125974830Y-68597091D01*
X125963965Y-68618504D01*
X125954479Y-68640047D01*
X125946271Y-68663321D01*
X125939244Y-68689927D01*
X125933300Y-68721468D01*
X125928341Y-68759543D01*
X125924267Y-68805755D01*
X125920980Y-68861704D01*
X125918382Y-68928991D01*
X125916375Y-69009219D01*
X125914860Y-69103988D01*
X125913739Y-69214899D01*
X125912914Y-69343554D01*
X125912285Y-69491554D01*
X125911754Y-69660501D01*
X125911224Y-69851995D01*
X125910747Y-70018275D01*
X125906975Y-71272400D01*
X125961363Y-71271008D01*
X126010937Y-71267454D01*
X126060803Y-71260580D01*
X126066550Y-71259489D01*
X126185462Y-71223294D01*
X126297723Y-71165038D01*
X126399115Y-71087940D01*
X126485423Y-70995221D01*
X126552429Y-70890102D01*
X126553848Y-70887288D01*
X126566369Y-70862485D01*
X126577472Y-70839938D01*
X126587241Y-70818043D01*
X126595763Y-70795197D01*
X126603121Y-70769799D01*
X126609402Y-70740245D01*
X126614690Y-70704933D01*
X126619071Y-70662259D01*
X126622630Y-70610622D01*
X126625451Y-70548419D01*
X126627620Y-70474047D01*
X126629223Y-70385903D01*
X126630344Y-70282385D01*
X126631068Y-70161890D01*
X126631481Y-70022815D01*
X126631667Y-69863558D01*
X126631713Y-69682516D01*
X126631702Y-69478086D01*
X126631700Y-69421881D01*
X126631700Y-68186300D01*
X126571375Y-68186450D01*
G37*
X126571375Y-68186450D02*
X126468400Y-68198442D01*
X126363345Y-68231928D01*
X126260915Y-68283922D01*
X126165812Y-68351442D01*
X126082742Y-68431502D01*
X126016407Y-68521118D01*
X126001087Y-68548250D01*
X125987171Y-68574206D01*
X125974830Y-68597091D01*
X125963965Y-68618504D01*
X125954479Y-68640047D01*
X125946271Y-68663321D01*
X125939244Y-68689927D01*
X125933300Y-68721468D01*
X125928341Y-68759543D01*
X125924267Y-68805755D01*
X125920980Y-68861704D01*
X125918382Y-68928991D01*
X125916375Y-69009219D01*
X125914860Y-69103988D01*
X125913739Y-69214899D01*
X125912914Y-69343554D01*
X125912285Y-69491554D01*
X125911754Y-69660501D01*
X125911224Y-69851995D01*
X125910747Y-70018275D01*
X125906975Y-71272400D01*
X125961363Y-71271008D01*
X126010937Y-71267454D01*
X126060803Y-71260580D01*
X126066550Y-71259489D01*
X126185462Y-71223294D01*
X126297723Y-71165038D01*
X126399115Y-71087940D01*
X126485423Y-70995221D01*
X126552429Y-70890102D01*
X126553848Y-70887288D01*
X126566369Y-70862485D01*
X126577472Y-70839938D01*
X126587241Y-70818043D01*
X126595763Y-70795197D01*
X126603121Y-70769799D01*
X126609402Y-70740245D01*
X126614690Y-70704933D01*
X126619071Y-70662259D01*
X126622630Y-70610622D01*
X126625451Y-70548419D01*
X126627620Y-70474047D01*
X126629223Y-70385903D01*
X126630344Y-70282385D01*
X126631068Y-70161890D01*
X126631481Y-70022815D01*
X126631667Y-69863558D01*
X126631713Y-69682516D01*
X126631702Y-69478086D01*
X126631700Y-69421881D01*
X126631700Y-68186300D01*
X126571375Y-68186450D01*
G36*
X127826057Y-68181655D02*
G01*
X127751648Y-68181835D01*
X127618021Y-68182312D01*
X127492060Y-68183015D01*
X127376041Y-68183915D01*
X127272242Y-68184981D01*
X127182943Y-68186184D01*
X127110419Y-68187494D01*
X127056950Y-68188881D01*
X127024813Y-68190315D01*
X127016010Y-68191456D01*
X127013626Y-68208829D01*
X127018303Y-68244071D01*
X127028500Y-68291149D01*
X127042675Y-68344033D01*
X127059288Y-68396693D01*
X127076796Y-68443098D01*
X127084935Y-68461113D01*
X127131771Y-68537466D01*
X127194882Y-68612896D01*
X127266341Y-68678785D01*
X127319357Y-68715987D01*
X127356502Y-68737100D01*
X127392358Y-68754166D01*
X127430128Y-68767611D01*
X127473013Y-68777865D01*
X127524217Y-68785354D01*
X127586941Y-68790508D01*
X127664389Y-68793755D01*
X127759762Y-68795521D01*
X127876263Y-68796236D01*
X127920244Y-68796315D01*
X128063021Y-68796990D01*
X128182759Y-68798913D01*
X128281804Y-68802438D01*
X128362502Y-68807921D01*
X128427198Y-68815716D01*
X128478238Y-68826176D01*
X128517968Y-68839658D01*
X128548733Y-68856514D01*
X128572878Y-68877101D01*
X128589735Y-68897500D01*
X128612978Y-68946491D01*
X128627078Y-69011145D01*
X128631914Y-69083377D01*
X128627366Y-69155106D01*
X128613314Y-69218251D01*
X128595098Y-69257229D01*
X128572295Y-69284753D01*
X128541275Y-69308502D01*
X128498970Y-69329619D01*
X128442314Y-69349250D01*
X128368237Y-69368540D01*
X128273673Y-69388632D01*
X128210845Y-69400621D01*
X128001350Y-69442089D01*
X127816101Y-69484523D01*
X127653950Y-69528410D01*
X127513748Y-69574243D01*
X127394346Y-69622509D01*
X127294596Y-69673698D01*
X127213348Y-69728301D01*
X127149455Y-69786807D01*
X127101766Y-69849706D01*
X127084788Y-69880590D01*
X127057911Y-69941551D01*
X127037785Y-70003089D01*
X127023584Y-70070220D01*
X127014483Y-70147961D01*
X127009655Y-70241329D01*
X127008277Y-70345300D01*
X127010375Y-70473141D01*
X127017940Y-70580142D01*
X127032382Y-70670538D01*
X127055113Y-70748562D01*
X127087545Y-70818449D01*
X127131088Y-70884433D01*
X127187153Y-70950749D01*
X127222250Y-70987300D01*
X127314683Y-71070134D01*
X127411015Y-71134091D01*
X127519259Y-71183978D01*
X127590550Y-71208328D01*
X127634172Y-71221204D01*
X127676528Y-71232241D01*
X127719919Y-71241580D01*
X127766640Y-71249359D01*
X127818993Y-71255720D01*
X127879273Y-71260801D01*
X127949780Y-71264744D01*
X128032813Y-71267687D01*
X128130669Y-71269772D01*
X128245647Y-71271137D01*
X128380045Y-71271923D01*
X128536161Y-71272269D01*
X128641475Y-71272325D01*
X128794996Y-71272310D01*
X128925056Y-71272190D01*
X129033595Y-71271903D01*
X129122554Y-71271388D01*
X129193870Y-71270581D01*
X129249485Y-71269422D01*
X129291337Y-71267848D01*
X129321367Y-71265798D01*
X129341513Y-71263210D01*
X129353716Y-71260022D01*
X129359915Y-71256171D01*
X129362049Y-71251597D01*
X129362200Y-71249332D01*
X129356931Y-71195318D01*
X129342884Y-71128946D01*
X129322699Y-71060548D01*
X129299017Y-71000453D01*
X129298083Y-70998470D01*
X129235586Y-70895527D01*
X129153556Y-70808793D01*
X129052077Y-70738347D01*
X128965722Y-70697232D01*
X128946291Y-70690002D01*
X128925717Y-70684094D01*
X128901121Y-70679313D01*
X128869626Y-70675460D01*
X128828353Y-70672340D01*
X128774423Y-70669756D01*
X128704959Y-70667511D01*
X128617081Y-70665407D01*
X128507913Y-70663250D01*
X128454150Y-70662264D01*
X128311580Y-70659314D01*
X128192047Y-70655721D01*
X128093190Y-70650963D01*
X128012647Y-70644521D01*
X127948057Y-70635874D01*
X127897057Y-70624503D01*
X127857286Y-70609887D01*
X127826382Y-70591506D01*
X127801982Y-70568840D01*
X127781726Y-70541369D01*
X127764143Y-70510297D01*
X127749776Y-70479657D01*
X127741615Y-70451145D01*
X127738597Y-70416854D01*
X127739662Y-70368873D01*
X127741250Y-70339697D01*
X127747445Y-70271972D01*
X127758493Y-70223061D01*
X127777160Y-70186466D01*
X127806212Y-70155685D01*
X127826285Y-70139861D01*
X127857917Y-70124052D01*
X127912204Y-70105769D01*
X127986593Y-70085650D01*
X128078529Y-70064332D01*
X128185459Y-70042453D01*
X128301750Y-70021182D01*
X128462566Y-69992298D01*
X128600687Y-69964997D01*
X128718697Y-69938373D01*
X128819178Y-69911519D01*
X128904713Y-69883527D01*
X128977887Y-69853491D01*
X129041281Y-69820503D01*
X129097478Y-69783657D01*
X129149063Y-69742045D01*
X129180853Y-69712490D01*
X129216470Y-69671414D01*
X129252262Y-69620105D01*
X129273111Y-69583675D01*
X129300460Y-69524655D01*
X129321175Y-69466918D01*
X129336079Y-69405564D01*
X129345998Y-69335692D01*
X129351756Y-69252403D01*
X129354179Y-69150795D01*
X129354400Y-69100700D01*
X129354194Y-69015978D01*
X129353169Y-68951348D01*
X129350797Y-68901503D01*
X129346548Y-68861135D01*
X129339894Y-68824937D01*
X129330305Y-68787603D01*
X129319585Y-68751450D01*
X129280498Y-68643710D01*
X129233470Y-68554640D01*
X129174724Y-68477852D01*
X129132681Y-68435389D01*
X129034927Y-68359720D01*
X128917661Y-68296631D01*
X128779818Y-68245657D01*
X128620331Y-68206331D01*
X128600200Y-68202468D01*
X128572012Y-68197614D01*
X128542212Y-68193517D01*
X128508527Y-68190124D01*
X128468679Y-68187379D01*
X128420395Y-68185226D01*
X128361397Y-68183611D01*
X128289409Y-68182477D01*
X128202158Y-68181770D01*
X128097365Y-68181434D01*
X127972757Y-68181414D01*
X127826057Y-68181655D01*
G37*
X127826057Y-68181655D02*
X127751648Y-68181835D01*
X127618021Y-68182312D01*
X127492060Y-68183015D01*
X127376041Y-68183915D01*
X127272242Y-68184981D01*
X127182943Y-68186184D01*
X127110419Y-68187494D01*
X127056950Y-68188881D01*
X127024813Y-68190315D01*
X127016010Y-68191456D01*
X127013626Y-68208829D01*
X127018303Y-68244071D01*
X127028500Y-68291149D01*
X127042675Y-68344033D01*
X127059288Y-68396693D01*
X127076796Y-68443098D01*
X127084935Y-68461113D01*
X127131771Y-68537466D01*
X127194882Y-68612896D01*
X127266341Y-68678785D01*
X127319357Y-68715987D01*
X127356502Y-68737100D01*
X127392358Y-68754166D01*
X127430128Y-68767611D01*
X127473013Y-68777865D01*
X127524217Y-68785354D01*
X127586941Y-68790508D01*
X127664389Y-68793755D01*
X127759762Y-68795521D01*
X127876263Y-68796236D01*
X127920244Y-68796315D01*
X128063021Y-68796990D01*
X128182759Y-68798913D01*
X128281804Y-68802438D01*
X128362502Y-68807921D01*
X128427198Y-68815716D01*
X128478238Y-68826176D01*
X128517968Y-68839658D01*
X128548733Y-68856514D01*
X128572878Y-68877101D01*
X128589735Y-68897500D01*
X128612978Y-68946491D01*
X128627078Y-69011145D01*
X128631914Y-69083377D01*
X128627366Y-69155106D01*
X128613314Y-69218251D01*
X128595098Y-69257229D01*
X128572295Y-69284753D01*
X128541275Y-69308502D01*
X128498970Y-69329619D01*
X128442314Y-69349250D01*
X128368237Y-69368540D01*
X128273673Y-69388632D01*
X128210845Y-69400621D01*
X128001350Y-69442089D01*
X127816101Y-69484523D01*
X127653950Y-69528410D01*
X127513748Y-69574243D01*
X127394346Y-69622509D01*
X127294596Y-69673698D01*
X127213348Y-69728301D01*
X127149455Y-69786807D01*
X127101766Y-69849706D01*
X127084788Y-69880590D01*
X127057911Y-69941551D01*
X127037785Y-70003089D01*
X127023584Y-70070220D01*
X127014483Y-70147961D01*
X127009655Y-70241329D01*
X127008277Y-70345300D01*
X127010375Y-70473141D01*
X127017940Y-70580142D01*
X127032382Y-70670538D01*
X127055113Y-70748562D01*
X127087545Y-70818449D01*
X127131088Y-70884433D01*
X127187153Y-70950749D01*
X127222250Y-70987300D01*
X127314683Y-71070134D01*
X127411015Y-71134091D01*
X127519259Y-71183978D01*
X127590550Y-71208328D01*
X127634172Y-71221204D01*
X127676528Y-71232241D01*
X127719919Y-71241580D01*
X127766640Y-71249359D01*
X127818993Y-71255720D01*
X127879273Y-71260801D01*
X127949780Y-71264744D01*
X128032813Y-71267687D01*
X128130669Y-71269772D01*
X128245647Y-71271137D01*
X128380045Y-71271923D01*
X128536161Y-71272269D01*
X128641475Y-71272325D01*
X128794996Y-71272310D01*
X128925056Y-71272190D01*
X129033595Y-71271903D01*
X129122554Y-71271388D01*
X129193870Y-71270581D01*
X129249485Y-71269422D01*
X129291337Y-71267848D01*
X129321367Y-71265798D01*
X129341513Y-71263210D01*
X129353716Y-71260022D01*
X129359915Y-71256171D01*
X129362049Y-71251597D01*
X129362200Y-71249332D01*
X129356931Y-71195318D01*
X129342884Y-71128946D01*
X129322699Y-71060548D01*
X129299017Y-71000453D01*
X129298083Y-70998470D01*
X129235586Y-70895527D01*
X129153556Y-70808793D01*
X129052077Y-70738347D01*
X128965722Y-70697232D01*
X128946291Y-70690002D01*
X128925717Y-70684094D01*
X128901121Y-70679313D01*
X128869626Y-70675460D01*
X128828353Y-70672340D01*
X128774423Y-70669756D01*
X128704959Y-70667511D01*
X128617081Y-70665407D01*
X128507913Y-70663250D01*
X128454150Y-70662264D01*
X128311580Y-70659314D01*
X128192047Y-70655721D01*
X128093190Y-70650963D01*
X128012647Y-70644521D01*
X127948057Y-70635874D01*
X127897057Y-70624503D01*
X127857286Y-70609887D01*
X127826382Y-70591506D01*
X127801982Y-70568840D01*
X127781726Y-70541369D01*
X127764143Y-70510297D01*
X127749776Y-70479657D01*
X127741615Y-70451145D01*
X127738597Y-70416854D01*
X127739662Y-70368873D01*
X127741250Y-70339697D01*
X127747445Y-70271972D01*
X127758493Y-70223061D01*
X127777160Y-70186466D01*
X127806212Y-70155685D01*
X127826285Y-70139861D01*
X127857917Y-70124052D01*
X127912204Y-70105769D01*
X127986593Y-70085650D01*
X128078529Y-70064332D01*
X128185459Y-70042453D01*
X128301750Y-70021182D01*
X128462566Y-69992298D01*
X128600687Y-69964997D01*
X128718697Y-69938373D01*
X128819178Y-69911519D01*
X128904713Y-69883527D01*
X128977887Y-69853491D01*
X129041281Y-69820503D01*
X129097478Y-69783657D01*
X129149063Y-69742045D01*
X129180853Y-69712490D01*
X129216470Y-69671414D01*
X129252262Y-69620105D01*
X129273111Y-69583675D01*
X129300460Y-69524655D01*
X129321175Y-69466918D01*
X129336079Y-69405564D01*
X129345998Y-69335692D01*
X129351756Y-69252403D01*
X129354179Y-69150795D01*
X129354400Y-69100700D01*
X129354194Y-69015978D01*
X129353169Y-68951348D01*
X129350797Y-68901503D01*
X129346548Y-68861135D01*
X129339894Y-68824937D01*
X129330305Y-68787603D01*
X129319585Y-68751450D01*
X129280498Y-68643710D01*
X129233470Y-68554640D01*
X129174724Y-68477852D01*
X129132681Y-68435389D01*
X129034927Y-68359720D01*
X128917661Y-68296631D01*
X128779818Y-68245657D01*
X128620331Y-68206331D01*
X128600200Y-68202468D01*
X128572012Y-68197614D01*
X128542212Y-68193517D01*
X128508527Y-68190124D01*
X128468679Y-68187379D01*
X128420395Y-68185226D01*
X128361397Y-68183611D01*
X128289409Y-68182477D01*
X128202158Y-68181770D01*
X128097365Y-68181434D01*
X127972757Y-68181414D01*
X127826057Y-68181655D01*
G36*
X130562992Y-68186583D02*
G01*
X130379443Y-68186931D01*
X130212759Y-68187521D01*
X130063968Y-68188343D01*
X129934099Y-68189385D01*
X129824181Y-68190639D01*
X129735243Y-68192092D01*
X129668315Y-68193736D01*
X129624424Y-68195559D01*
X129604601Y-68197551D01*
X129603500Y-68198169D01*
X129607752Y-68235290D01*
X129618998Y-68287868D01*
X129634975Y-68347706D01*
X129653418Y-68406607D01*
X129672063Y-68456376D01*
X129679148Y-68472050D01*
X129720761Y-68539416D01*
X129778079Y-68608230D01*
X129843457Y-68670481D01*
X129909249Y-68718158D01*
X129919800Y-68724170D01*
X129952437Y-68741235D01*
X129983724Y-68755366D01*
X130016379Y-68766838D01*
X130053122Y-68775925D01*
X130096672Y-68782903D01*
X130149747Y-68788048D01*
X130215068Y-68791634D01*
X130295352Y-68793937D01*
X130393320Y-68795231D01*
X130511690Y-68795793D01*
X130628519Y-68795900D01*
X131127500Y-68795900D01*
X131127500Y-69405500D01*
X130435350Y-69405500D01*
X130284968Y-69405713D01*
X130149976Y-69406338D01*
X130031802Y-69407349D01*
X129931876Y-69408723D01*
X129851624Y-69410434D01*
X129792476Y-69412458D01*
X129755859Y-69414771D01*
X129743201Y-69417348D01*
X129743200Y-69417369D01*
X129747243Y-69451853D01*
X129757888Y-69501944D01*
X129772916Y-69559435D01*
X129790106Y-69616116D01*
X129807235Y-69663778D01*
X129814220Y-69679858D01*
X129858243Y-69752738D01*
X129918569Y-69825103D01*
X129987598Y-69888954D01*
X130057730Y-69936291D01*
X130058027Y-69936450D01*
X130097021Y-69956496D01*
X130133410Y-69972828D01*
X130170303Y-69985822D01*
X130210809Y-69995857D01*
X130258037Y-70003310D01*
X130315098Y-70008561D01*
X130385100Y-70011988D01*
X130471152Y-70013967D01*
X130576364Y-70014878D01*
X130703846Y-70015099D01*
X130704719Y-70015100D01*
X131127500Y-70015100D01*
X131127500Y-70662800D01*
X130365500Y-70662800D01*
X130185663Y-70662993D01*
X130030815Y-70663576D01*
X129900547Y-70664558D01*
X129794451Y-70665944D01*
X129712120Y-70667743D01*
X129653144Y-70669960D01*
X129617115Y-70672604D01*
X129603626Y-70675681D01*
X129603500Y-70676035D01*
X129605932Y-70694105D01*
X129612368Y-70729937D01*
X129621522Y-70776452D01*
X129623547Y-70786321D01*
X129660800Y-70910790D01*
X129717648Y-71019182D01*
X129793755Y-71111101D01*
X129888784Y-71186152D01*
X130002400Y-71243937D01*
X130017276Y-71249696D01*
X130032265Y-71255173D01*
X130047204Y-71259901D01*
X130064007Y-71263945D01*
X130084589Y-71267371D01*
X130110865Y-71270244D01*
X130144749Y-71272628D01*
X130188156Y-71274589D01*
X130243000Y-71276193D01*
X130311196Y-71277505D01*
X130394660Y-71278589D01*
X130495305Y-71279511D01*
X130615046Y-71280336D01*
X130755797Y-71281130D01*
X130919474Y-71281958D01*
X130971925Y-71282215D01*
X131851400Y-71286527D01*
X131851400Y-70472300D01*
X132133975Y-70472520D01*
X132251677Y-70473402D01*
X132348185Y-70476263D01*
X132427671Y-70481732D01*
X132494306Y-70490436D01*
X132552260Y-70503002D01*
X132605705Y-70520059D01*
X132658812Y-70542235D01*
X132687251Y-70555787D01*
X132744913Y-70586967D01*
X132794976Y-70621322D01*
X132840366Y-70662246D01*
X132884006Y-70713136D01*
X132928822Y-70777386D01*
X132977740Y-70858393D01*
X133031383Y-70955277D01*
X133070395Y-71027521D01*
X133107391Y-71095716D01*
X133139891Y-71155316D01*
X133165415Y-71201775D01*
X133181484Y-71230547D01*
X133181814Y-71231125D01*
X133212714Y-71285100D01*
X133494082Y-71284912D01*
X133599430Y-71284298D01*
X133681331Y-71282546D01*
X133741717Y-71279555D01*
X133782520Y-71275227D01*
X133805673Y-71269461D01*
X133807200Y-71268748D01*
X133817555Y-71263567D01*
X133826455Y-71258202D01*
X133833336Y-71251466D01*
X133837637Y-71242174D01*
X133838795Y-71229143D01*
X133836247Y-71211185D01*
X133829432Y-71187118D01*
X133817787Y-71155755D01*
X133800749Y-71115911D01*
X133777756Y-71066402D01*
X133748245Y-71006042D01*
X133711655Y-70933646D01*
X133667422Y-70848030D01*
X133614985Y-70748008D01*
X133553781Y-70632395D01*
X133483246Y-70500007D01*
X133402820Y-70349657D01*
X133311940Y-70180162D01*
X133210042Y-69990335D01*
X133161967Y-69900800D01*
X132461894Y-69900800D01*
X131851400Y-69900800D01*
X131852458Y-68827650D01*
X131896574Y-68877616D01*
X131910485Y-68897680D01*
X131934872Y-68937580D01*
X131968299Y-68994721D01*
X132009329Y-69066506D01*
X132056524Y-69150339D01*
X132108448Y-69243623D01*
X132163663Y-69343762D01*
X132220734Y-69448160D01*
X132278222Y-69554221D01*
X132334692Y-69659349D01*
X132388705Y-69760946D01*
X132438826Y-69856418D01*
X132447050Y-69872225D01*
X132461894Y-69900800D01*
X133161967Y-69900800D01*
X133127520Y-69836646D01*
X133034702Y-69663994D01*
X132944555Y-69496737D01*
X132857880Y-69336337D01*
X132775475Y-69184255D01*
X132698141Y-69041952D01*
X132626677Y-68910891D01*
X132561882Y-68792531D01*
X132504555Y-68688335D01*
X132455496Y-68599764D01*
X132415505Y-68528280D01*
X132385380Y-68475344D01*
X132365922Y-68442417D01*
X132359460Y-68432553D01*
X132291967Y-68359625D01*
X132206736Y-68293489D01*
X132134375Y-68251340D01*
X132112993Y-68240672D01*
X132092580Y-68231248D01*
X132071501Y-68222989D01*
X132048122Y-68215818D01*
X132020808Y-68209658D01*
X131987925Y-68204433D01*
X131947839Y-68200064D01*
X131898915Y-68196474D01*
X131839519Y-68193586D01*
X131768017Y-68191324D01*
X131682774Y-68189609D01*
X131582155Y-68188364D01*
X131464527Y-68187512D01*
X131328254Y-68186977D01*
X131171703Y-68186680D01*
X130993239Y-68186544D01*
X130791228Y-68186492D01*
X130762375Y-68186487D01*
X130562992Y-68186583D01*
G37*
X130562992Y-68186583D02*
X130379443Y-68186931D01*
X130212759Y-68187521D01*
X130063968Y-68188343D01*
X129934099Y-68189385D01*
X129824181Y-68190639D01*
X129735243Y-68192092D01*
X129668315Y-68193736D01*
X129624424Y-68195559D01*
X129604601Y-68197551D01*
X129603500Y-68198169D01*
X129607752Y-68235290D01*
X129618998Y-68287868D01*
X129634975Y-68347706D01*
X129653418Y-68406607D01*
X129672063Y-68456376D01*
X129679148Y-68472050D01*
X129720761Y-68539416D01*
X129778079Y-68608230D01*
X129843457Y-68670481D01*
X129909249Y-68718158D01*
X129919800Y-68724170D01*
X129952437Y-68741235D01*
X129983724Y-68755366D01*
X130016379Y-68766838D01*
X130053122Y-68775925D01*
X130096672Y-68782903D01*
X130149747Y-68788048D01*
X130215068Y-68791634D01*
X130295352Y-68793937D01*
X130393320Y-68795231D01*
X130511690Y-68795793D01*
X130628519Y-68795900D01*
X131127500Y-68795900D01*
X131127500Y-69405500D01*
X130435350Y-69405500D01*
X130284968Y-69405713D01*
X130149976Y-69406338D01*
X130031802Y-69407349D01*
X129931876Y-69408723D01*
X129851624Y-69410434D01*
X129792476Y-69412458D01*
X129755859Y-69414771D01*
X129743201Y-69417348D01*
X129743200Y-69417369D01*
X129747243Y-69451853D01*
X129757888Y-69501944D01*
X129772916Y-69559435D01*
X129790106Y-69616116D01*
X129807235Y-69663778D01*
X129814220Y-69679858D01*
X129858243Y-69752738D01*
X129918569Y-69825103D01*
X129987598Y-69888954D01*
X130057730Y-69936291D01*
X130058027Y-69936450D01*
X130097021Y-69956496D01*
X130133410Y-69972828D01*
X130170303Y-69985822D01*
X130210809Y-69995857D01*
X130258037Y-70003310D01*
X130315098Y-70008561D01*
X130385100Y-70011988D01*
X130471152Y-70013967D01*
X130576364Y-70014878D01*
X130703846Y-70015099D01*
X130704719Y-70015100D01*
X131127500Y-70015100D01*
X131127500Y-70662800D01*
X130365500Y-70662800D01*
X130185663Y-70662993D01*
X130030815Y-70663576D01*
X129900547Y-70664558D01*
X129794451Y-70665944D01*
X129712120Y-70667743D01*
X129653144Y-70669960D01*
X129617115Y-70672604D01*
X129603626Y-70675681D01*
X129603500Y-70676035D01*
X129605932Y-70694105D01*
X129612368Y-70729937D01*
X129621522Y-70776452D01*
X129623547Y-70786321D01*
X129660800Y-70910790D01*
X129717648Y-71019182D01*
X129793755Y-71111101D01*
X129888784Y-71186152D01*
X130002400Y-71243937D01*
X130017276Y-71249696D01*
X130032265Y-71255173D01*
X130047204Y-71259901D01*
X130064007Y-71263945D01*
X130084589Y-71267371D01*
X130110865Y-71270244D01*
X130144749Y-71272628D01*
X130188156Y-71274589D01*
X130243000Y-71276193D01*
X130311196Y-71277505D01*
X130394660Y-71278589D01*
X130495305Y-71279511D01*
X130615046Y-71280336D01*
X130755797Y-71281130D01*
X130919474Y-71281958D01*
X130971925Y-71282215D01*
X131851400Y-71286527D01*
X131851400Y-70472300D01*
X132133975Y-70472520D01*
X132251677Y-70473402D01*
X132348185Y-70476263D01*
X132427671Y-70481732D01*
X132494306Y-70490436D01*
X132552260Y-70503002D01*
X132605705Y-70520059D01*
X132658812Y-70542235D01*
X132687251Y-70555787D01*
X132744913Y-70586967D01*
X132794976Y-70621322D01*
X132840366Y-70662246D01*
X132884006Y-70713136D01*
X132928822Y-70777386D01*
X132977740Y-70858393D01*
X133031383Y-70955277D01*
X133070395Y-71027521D01*
X133107391Y-71095716D01*
X133139891Y-71155316D01*
X133165415Y-71201775D01*
X133181484Y-71230547D01*
X133181814Y-71231125D01*
X133212714Y-71285100D01*
X133494082Y-71284912D01*
X133599430Y-71284298D01*
X133681331Y-71282546D01*
X133741717Y-71279555D01*
X133782520Y-71275227D01*
X133805673Y-71269461D01*
X133807200Y-71268748D01*
X133817555Y-71263567D01*
X133826455Y-71258202D01*
X133833336Y-71251466D01*
X133837637Y-71242174D01*
X133838795Y-71229143D01*
X133836247Y-71211185D01*
X133829432Y-71187118D01*
X133817787Y-71155755D01*
X133800749Y-71115911D01*
X133777756Y-71066402D01*
X133748245Y-71006042D01*
X133711655Y-70933646D01*
X133667422Y-70848030D01*
X133614985Y-70748008D01*
X133553781Y-70632395D01*
X133483246Y-70500007D01*
X133402820Y-70349657D01*
X133311940Y-70180162D01*
X133210042Y-69990335D01*
X133161967Y-69900800D01*
X132461894Y-69900800D01*
X131851400Y-69900800D01*
X131852458Y-68827650D01*
X131896574Y-68877616D01*
X131910485Y-68897680D01*
X131934872Y-68937580D01*
X131968299Y-68994721D01*
X132009329Y-69066506D01*
X132056524Y-69150339D01*
X132108448Y-69243623D01*
X132163663Y-69343762D01*
X132220734Y-69448160D01*
X132278222Y-69554221D01*
X132334692Y-69659349D01*
X132388705Y-69760946D01*
X132438826Y-69856418D01*
X132447050Y-69872225D01*
X132461894Y-69900800D01*
X133161967Y-69900800D01*
X133127520Y-69836646D01*
X133034702Y-69663994D01*
X132944555Y-69496737D01*
X132857880Y-69336337D01*
X132775475Y-69184255D01*
X132698141Y-69041952D01*
X132626677Y-68910891D01*
X132561882Y-68792531D01*
X132504555Y-68688335D01*
X132455496Y-68599764D01*
X132415505Y-68528280D01*
X132385380Y-68475344D01*
X132365922Y-68442417D01*
X132359460Y-68432553D01*
X132291967Y-68359625D01*
X132206736Y-68293489D01*
X132134375Y-68251340D01*
X132112993Y-68240672D01*
X132092580Y-68231248D01*
X132071501Y-68222989D01*
X132048122Y-68215818D01*
X132020808Y-68209658D01*
X131987925Y-68204433D01*
X131947839Y-68200064D01*
X131898915Y-68196474D01*
X131839519Y-68193586D01*
X131768017Y-68191324D01*
X131682774Y-68189609D01*
X131582155Y-68188364D01*
X131464527Y-68187512D01*
X131328254Y-68186977D01*
X131171703Y-68186680D01*
X130993239Y-68186544D01*
X130791228Y-68186492D01*
X130762375Y-68186487D01*
X130562992Y-68186583D01*
G36*
X132498476Y-67294668D02*
G01*
X132489785Y-67301172D01*
X132477883Y-67327556D01*
X132471258Y-67374719D01*
X132469531Y-67438674D01*
X132472323Y-67515438D01*
X132479253Y-67601027D01*
X132489942Y-67691456D01*
X132504010Y-67782741D01*
X132521079Y-67870898D01*
X132540767Y-67951942D01*
X132556856Y-68005157D01*
X132568248Y-68031998D01*
X132591658Y-68080621D01*
X132626841Y-68150566D01*
X132673553Y-68241369D01*
X132731550Y-68352569D01*
X132800589Y-68483703D01*
X132880425Y-68634310D01*
X132970814Y-68803928D01*
X133071513Y-68992095D01*
X133182278Y-69198349D01*
X133302864Y-69422227D01*
X133407073Y-69615250D01*
X133505641Y-69797772D01*
X133600921Y-69974445D01*
X133692207Y-70143951D01*
X133778795Y-70304969D01*
X133859980Y-70456181D01*
X133935056Y-70596266D01*
X134003318Y-70723906D01*
X134064061Y-70837782D01*
X134116579Y-70936573D01*
X134160168Y-71018960D01*
X134194122Y-71083624D01*
X134217736Y-71129245D01*
X134230305Y-71154505D01*
X134232222Y-71159065D01*
X134231939Y-71180061D01*
X134227001Y-71221910D01*
X134218039Y-71280623D01*
X134205686Y-71352209D01*
X134190573Y-71432677D01*
X134182218Y-71474801D01*
X134165678Y-71557776D01*
X134150997Y-71633390D01*
X134138900Y-71697758D01*
X134130108Y-71746993D01*
X134125345Y-71777210D01*
X134124700Y-71784032D01*
X134134004Y-71826413D01*
X134157477Y-71870579D01*
X134188463Y-71905306D01*
X134201982Y-71914309D01*
X134227457Y-71924386D01*
X134258512Y-71929808D01*
X134298607Y-71930338D01*
X134351202Y-71925742D01*
X134419754Y-71915784D01*
X134507722Y-71900228D01*
X134562850Y-71889740D01*
X134778750Y-71847986D01*
X134912100Y-71969210D01*
X134963524Y-72015940D01*
X135011128Y-72059169D01*
X135050306Y-72094715D01*
X135076445Y-72118392D01*
X135080375Y-72121942D01*
X135103162Y-72141275D01*
X135112997Y-72143987D01*
X135115171Y-72131129D01*
X135115170Y-72128851D01*
X135113214Y-72108312D01*
X135107896Y-72067580D01*
X135099904Y-72011536D01*
X135089924Y-71945061D01*
X135083210Y-71901824D01*
X135051379Y-71699399D01*
X135221341Y-71527174D01*
X135275715Y-71471368D01*
X135324534Y-71419927D01*
X135364685Y-71376239D01*
X135393051Y-71343695D01*
X135406508Y-71325705D01*
X135420060Y-71277846D01*
X135419978Y-71221460D01*
X135406530Y-71169278D01*
X135403077Y-71162018D01*
X135395422Y-71148181D01*
X135386313Y-71136124D01*
X135372946Y-71124421D01*
X135352520Y-71111647D01*
X135322232Y-71096376D01*
X135279279Y-71077182D01*
X135220861Y-71052641D01*
X135144173Y-71021326D01*
X135058150Y-70986548D01*
X134964670Y-70947723D01*
X134887948Y-70913588D01*
X134830072Y-70885136D01*
X134793126Y-70863364D01*
X134783205Y-70855346D01*
X134773179Y-70840208D01*
X134751888Y-70804020D01*
X134720064Y-70748121D01*
X134678442Y-70673846D01*
X134627754Y-70582534D01*
X134568735Y-70475521D01*
X134502117Y-70354146D01*
X134428635Y-70219746D01*
X134349021Y-70073658D01*
X134264009Y-69917219D01*
X134174333Y-69751767D01*
X134080726Y-69578640D01*
X133983921Y-69399174D01*
X133946291Y-69329300D01*
X133848281Y-69147326D01*
X133753134Y-68970867D01*
X133661591Y-68801287D01*
X133574392Y-68639950D01*
X133492279Y-68488220D01*
X133415991Y-68347461D01*
X133346271Y-68219036D01*
X133283858Y-68104310D01*
X133229493Y-68004647D01*
X133183917Y-67921411D01*
X133147871Y-67855965D01*
X133122096Y-67809674D01*
X133107332Y-67783903D01*
X133104848Y-67779900D01*
X133073659Y-67739424D01*
X133027305Y-67687137D01*
X132970226Y-67627375D01*
X132906864Y-67564473D01*
X132841659Y-67502769D01*
X132779052Y-67446599D01*
X132723485Y-67400299D01*
X132691664Y-67376440D01*
X132621497Y-67330377D01*
X132567151Y-67301857D01*
X132526764Y-67290185D01*
X132498476Y-67294668D01*
G37*
X132498476Y-67294668D02*
X132489785Y-67301172D01*
X132477883Y-67327556D01*
X132471258Y-67374719D01*
X132469531Y-67438674D01*
X132472323Y-67515438D01*
X132479253Y-67601027D01*
X132489942Y-67691456D01*
X132504010Y-67782741D01*
X132521079Y-67870898D01*
X132540767Y-67951942D01*
X132556856Y-68005157D01*
X132568248Y-68031998D01*
X132591658Y-68080621D01*
X132626841Y-68150566D01*
X132673553Y-68241369D01*
X132731550Y-68352569D01*
X132800589Y-68483703D01*
X132880425Y-68634310D01*
X132970814Y-68803928D01*
X133071513Y-68992095D01*
X133182278Y-69198349D01*
X133302864Y-69422227D01*
X133407073Y-69615250D01*
X133505641Y-69797772D01*
X133600921Y-69974445D01*
X133692207Y-70143951D01*
X133778795Y-70304969D01*
X133859980Y-70456181D01*
X133935056Y-70596266D01*
X134003318Y-70723906D01*
X134064061Y-70837782D01*
X134116579Y-70936573D01*
X134160168Y-71018960D01*
X134194122Y-71083624D01*
X134217736Y-71129245D01*
X134230305Y-71154505D01*
X134232222Y-71159065D01*
X134231939Y-71180061D01*
X134227001Y-71221910D01*
X134218039Y-71280623D01*
X134205686Y-71352209D01*
X134190573Y-71432677D01*
X134182218Y-71474801D01*
X134165678Y-71557776D01*
X134150997Y-71633390D01*
X134138900Y-71697758D01*
X134130108Y-71746993D01*
X134125345Y-71777210D01*
X134124700Y-71784032D01*
X134134004Y-71826413D01*
X134157477Y-71870579D01*
X134188463Y-71905306D01*
X134201982Y-71914309D01*
X134227457Y-71924386D01*
X134258512Y-71929808D01*
X134298607Y-71930338D01*
X134351202Y-71925742D01*
X134419754Y-71915784D01*
X134507722Y-71900228D01*
X134562850Y-71889740D01*
X134778750Y-71847986D01*
X134912100Y-71969210D01*
X134963524Y-72015940D01*
X135011128Y-72059169D01*
X135050306Y-72094715D01*
X135076445Y-72118392D01*
X135080375Y-72121942D01*
X135103162Y-72141275D01*
X135112997Y-72143987D01*
X135115171Y-72131129D01*
X135115170Y-72128851D01*
X135113214Y-72108312D01*
X135107896Y-72067580D01*
X135099904Y-72011536D01*
X135089924Y-71945061D01*
X135083210Y-71901824D01*
X135051379Y-71699399D01*
X135221341Y-71527174D01*
X135275715Y-71471368D01*
X135324534Y-71419927D01*
X135364685Y-71376239D01*
X135393051Y-71343695D01*
X135406508Y-71325705D01*
X135420060Y-71277846D01*
X135419978Y-71221460D01*
X135406530Y-71169278D01*
X135403077Y-71162018D01*
X135395422Y-71148181D01*
X135386313Y-71136124D01*
X135372946Y-71124421D01*
X135352520Y-71111647D01*
X135322232Y-71096376D01*
X135279279Y-71077182D01*
X135220861Y-71052641D01*
X135144173Y-71021326D01*
X135058150Y-70986548D01*
X134964670Y-70947723D01*
X134887948Y-70913588D01*
X134830072Y-70885136D01*
X134793126Y-70863364D01*
X134783205Y-70855346D01*
X134773179Y-70840208D01*
X134751888Y-70804020D01*
X134720064Y-70748121D01*
X134678442Y-70673846D01*
X134627754Y-70582534D01*
X134568735Y-70475521D01*
X134502117Y-70354146D01*
X134428635Y-70219746D01*
X134349021Y-70073658D01*
X134264009Y-69917219D01*
X134174333Y-69751767D01*
X134080726Y-69578640D01*
X133983921Y-69399174D01*
X133946291Y-69329300D01*
X133848281Y-69147326D01*
X133753134Y-68970867D01*
X133661591Y-68801287D01*
X133574392Y-68639950D01*
X133492279Y-68488220D01*
X133415991Y-68347461D01*
X133346271Y-68219036D01*
X133283858Y-68104310D01*
X133229493Y-68004647D01*
X133183917Y-67921411D01*
X133147871Y-67855965D01*
X133122096Y-67809674D01*
X133107332Y-67783903D01*
X133104848Y-67779900D01*
X133073659Y-67739424D01*
X133027305Y-67687137D01*
X132970226Y-67627375D01*
X132906864Y-67564473D01*
X132841659Y-67502769D01*
X132779052Y-67446599D01*
X132723485Y-67400299D01*
X132691664Y-67376440D01*
X132621497Y-67330377D01*
X132567151Y-67301857D01*
X132526764Y-67290185D01*
X132498476Y-67294668D01*
D10*
%TO.C,C1*%
X145696000Y-149344748D02*
X145696000Y-149867252D01*
X147166000Y-149344748D02*
X147166000Y-149867252D01*
%TO.C,U16*%
X133148000Y-82981000D02*
X133148000Y-84796000D01*
X133403000Y-82981000D02*
X133148000Y-82981000D01*
X133403000Y-79121000D02*
X133403000Y-82981000D01*
X133403000Y-75261000D02*
X133148000Y-75261000D01*
X133403000Y-79121000D02*
X133403000Y-75261000D01*
X122883000Y-82981000D02*
X123138000Y-82981000D01*
X122883000Y-79121000D02*
X122883000Y-82981000D01*
X122883000Y-75261000D02*
X123138000Y-75261000D01*
X122883000Y-79121000D02*
X122883000Y-75261000D01*
%TO.C,U4*%
X153182000Y-148082000D02*
X153182000Y-151532000D01*
X153182000Y-148082000D02*
X153182000Y-146132000D01*
X148062000Y-148082000D02*
X148062000Y-150032000D01*
X148062000Y-148082000D02*
X148062000Y-146132000D01*
%TO.C,R13*%
X150611064Y-137949000D02*
X150156936Y-137949000D01*
X150611064Y-139419000D02*
X150156936Y-139419000D01*
D12*
%TO.C,U14*%
X140800000Y-72425000D02*
X140800000Y-72375000D01*
X144950000Y-72425000D02*
X144950000Y-72280000D01*
X144950000Y-67275000D02*
X144950000Y-67420000D01*
X140800000Y-67275000D02*
X140800000Y-67420000D01*
X140800000Y-72425000D02*
X144950000Y-72425000D01*
X140800000Y-67275000D02*
X144950000Y-67275000D01*
X140800000Y-72375000D02*
X139400000Y-72375000D01*
%TO.C,U13*%
X140800000Y-80045000D02*
X140800000Y-79995000D01*
X144950000Y-80045000D02*
X144950000Y-79900000D01*
X144950000Y-74895000D02*
X144950000Y-75040000D01*
X140800000Y-74895000D02*
X140800000Y-75040000D01*
X140800000Y-80045000D02*
X144950000Y-80045000D01*
X140800000Y-74895000D02*
X144950000Y-74895000D01*
X140800000Y-79995000D02*
X139400000Y-79995000D01*
%TO.C,U12*%
X140800000Y-85760000D02*
X140800000Y-85710000D01*
X144950000Y-85760000D02*
X144950000Y-85615000D01*
X144950000Y-80610000D02*
X144950000Y-80755000D01*
X140800000Y-80610000D02*
X140800000Y-80755000D01*
X140800000Y-85760000D02*
X144950000Y-85760000D01*
X140800000Y-80610000D02*
X144950000Y-80610000D01*
X140800000Y-85710000D02*
X139400000Y-85710000D01*
%TO.C,U11*%
X140800000Y-93380000D02*
X140800000Y-93330000D01*
X144950000Y-93380000D02*
X144950000Y-93235000D01*
X144950000Y-88230000D02*
X144950000Y-88375000D01*
X140800000Y-88230000D02*
X140800000Y-88375000D01*
X140800000Y-93380000D02*
X144950000Y-93380000D01*
X140800000Y-88230000D02*
X144950000Y-88230000D01*
X140800000Y-93330000D02*
X139400000Y-93330000D01*
D10*
%TO.C,R10*%
X150087000Y-132376936D02*
X150087000Y-132831064D01*
X148617000Y-132376936D02*
X148617000Y-132831064D01*
%TO.C,R9*%
X126773000Y-139800064D02*
X126773000Y-139345936D01*
X128243000Y-139800064D02*
X128243000Y-139345936D01*
%TO.C,R8*%
X133376936Y-87657000D02*
X133831064Y-87657000D01*
X133376936Y-89127000D02*
X133831064Y-89127000D01*
%TO.C,R6*%
X130329000Y-137371064D02*
X130329000Y-136916936D01*
X131799000Y-137371064D02*
X131799000Y-136916936D01*
%TO.C,R5*%
X124360000Y-88238064D02*
X124360000Y-87783936D01*
X125830000Y-88238064D02*
X125830000Y-87783936D01*
%TO.C,R4*%
X131672064Y-129132000D02*
X131217936Y-129132000D01*
X131672064Y-127662000D02*
X131217936Y-127662000D01*
%TO.C,R3*%
X131672064Y-126592000D02*
X131217936Y-126592000D01*
X131672064Y-125122000D02*
X131217936Y-125122000D01*
%TO.C,R2*%
X144499000Y-132360936D02*
X144499000Y-132815064D01*
X143029000Y-132360936D02*
X143029000Y-132815064D01*
%TO.C,R1*%
X143610064Y-130148000D02*
X143155936Y-130148000D01*
X143610064Y-128678000D02*
X143155936Y-128678000D01*
%TO.C,D12*%
X151328000Y-68752000D02*
X151328000Y-71612000D01*
X149408000Y-68752000D02*
X151328000Y-68752000D01*
X149408000Y-71612000D02*
X149408000Y-68752000D01*
%TO.C,D10*%
X151328000Y-75855000D02*
X151328000Y-78715000D01*
X149408000Y-75855000D02*
X151328000Y-75855000D01*
X149408000Y-78715000D02*
X149408000Y-75855000D01*
%TO.C,D8*%
X151328000Y-82468000D02*
X151328000Y-85328000D01*
X149408000Y-82468000D02*
X151328000Y-82468000D01*
X149408000Y-85328000D02*
X149408000Y-82468000D01*
%TO.C,D6*%
X151328000Y-89580000D02*
X151328000Y-92440000D01*
X149408000Y-89580000D02*
X151328000Y-89580000D01*
X149408000Y-92440000D02*
X149408000Y-89580000D01*
%TO.C,C12*%
X145041252Y-74395000D02*
X144518748Y-74395000D01*
X145041252Y-72925000D02*
X144518748Y-72925000D01*
%TO.C,C10*%
X145041252Y-87730000D02*
X144518748Y-87730000D01*
X145041252Y-86260000D02*
X144518748Y-86260000D01*
%TO.C,C8*%
X147093000Y-70894752D02*
X147093000Y-70372248D01*
X148563000Y-70894752D02*
X148563000Y-70372248D01*
%TO.C,C7*%
X147093000Y-77963752D02*
X147093000Y-77441248D01*
X148563000Y-77963752D02*
X148563000Y-77441248D01*
%TO.C,C6*%
X147093000Y-84589252D02*
X147093000Y-84066748D01*
X148563000Y-84589252D02*
X148563000Y-84066748D01*
%TO.C,C5*%
X147093000Y-91701252D02*
X147093000Y-91178748D01*
X148563000Y-91701252D02*
X148563000Y-91178748D01*
%TO.C,C4*%
X130837000Y-101839752D02*
X130837000Y-101317248D01*
X132307000Y-101839752D02*
X132307000Y-101317248D01*
%TO.C,C2*%
X131164000Y-87241748D02*
X131164000Y-87764252D01*
X129694000Y-87241748D02*
X129694000Y-87764252D01*
D11*
%TO.C,H3*%
G36*
X133900944Y-149336903D02*
G01*
X133855640Y-149499066D01*
X133875538Y-149691490D01*
X133959600Y-149843067D01*
X134122667Y-149923911D01*
X134333134Y-149939782D01*
X134515602Y-149893391D01*
X134588306Y-149820471D01*
X134560317Y-149687677D01*
X134431361Y-149522386D01*
X134250373Y-149370868D01*
X134066284Y-149279393D01*
X134006167Y-149270009D01*
X133900944Y-149336903D01*
G37*
X133900944Y-149336903D02*
X133855640Y-149499066D01*
X133875538Y-149691490D01*
X133959600Y-149843067D01*
X134122667Y-149923911D01*
X134333134Y-149939782D01*
X134515602Y-149893391D01*
X134588306Y-149820471D01*
X134560317Y-149687677D01*
X134431361Y-149522386D01*
X134250373Y-149370868D01*
X134066284Y-149279393D01*
X134006167Y-149270009D01*
X133900944Y-149336903D01*
G36*
X135829057Y-150269875D02*
G01*
X135805333Y-150374513D01*
X135726232Y-150610460D01*
X135510201Y-150834262D01*
X135189151Y-151020854D01*
X134835126Y-151136627D01*
X134523957Y-151194166D01*
X134269984Y-151200133D01*
X133986222Y-151152125D01*
X133810594Y-151108339D01*
X133336399Y-150974694D01*
X133007445Y-150856613D01*
X132801849Y-150742387D01*
X132697731Y-150620303D01*
X132672667Y-150499320D01*
X132628012Y-150324128D01*
X132540799Y-150283333D01*
X132457472Y-150322178D01*
X132428607Y-150463443D01*
X132434965Y-150643167D01*
X132461000Y-151003000D01*
X133138333Y-151233324D01*
X133895256Y-151420889D01*
X134613949Y-151451519D01*
X135252103Y-151344402D01*
X135657003Y-151173883D01*
X135927396Y-150921678D01*
X136052041Y-150599680D01*
X136059333Y-150490279D01*
X136030863Y-150272982D01*
X135940491Y-150198929D01*
X135932333Y-150198667D01*
X135829057Y-150269875D01*
G37*
X135829057Y-150269875D02*
X135805333Y-150374513D01*
X135726232Y-150610460D01*
X135510201Y-150834262D01*
X135189151Y-151020854D01*
X134835126Y-151136627D01*
X134523957Y-151194166D01*
X134269984Y-151200133D01*
X133986222Y-151152125D01*
X133810594Y-151108339D01*
X133336399Y-150974694D01*
X133007445Y-150856613D01*
X132801849Y-150742387D01*
X132697731Y-150620303D01*
X132672667Y-150499320D01*
X132628012Y-150324128D01*
X132540799Y-150283333D01*
X132457472Y-150322178D01*
X132428607Y-150463443D01*
X132434965Y-150643167D01*
X132461000Y-151003000D01*
X133138333Y-151233324D01*
X133895256Y-151420889D01*
X134613949Y-151451519D01*
X135252103Y-151344402D01*
X135657003Y-151173883D01*
X135927396Y-150921678D01*
X136052041Y-150599680D01*
X136059333Y-150490279D01*
X136030863Y-150272982D01*
X135940491Y-150198929D01*
X135932333Y-150198667D01*
X135829057Y-150269875D01*
G36*
X134939068Y-146166901D02*
G01*
X134474431Y-146204716D01*
X133995878Y-146273410D01*
X133552870Y-146367170D01*
X133194865Y-146480184D01*
X133151944Y-146498265D01*
X132731174Y-146756686D01*
X132307034Y-147150000D01*
X131907360Y-147646665D01*
X131559989Y-148215141D01*
X131461123Y-148414094D01*
X131304288Y-148756287D01*
X131208539Y-149006837D01*
X131161727Y-149226777D01*
X131151701Y-149477140D01*
X131166310Y-149818961D01*
X131169663Y-149878182D01*
X131198477Y-150264655D01*
X131242712Y-150539802D01*
X131317995Y-150761633D01*
X131439953Y-150988155D01*
X131490745Y-151070088D01*
X131685352Y-151384697D01*
X131880095Y-151709273D01*
X131975309Y-151873040D01*
X132109452Y-152087667D01*
X132251421Y-152249828D01*
X132426687Y-152367265D01*
X132660719Y-152447722D01*
X132978989Y-152498941D01*
X133406967Y-152528664D01*
X133970123Y-152544634D01*
X134196667Y-152548303D01*
X134795241Y-152553021D01*
X135247177Y-152546660D01*
X135574880Y-152527998D01*
X135800758Y-152495811D01*
X135937728Y-152453278D01*
X136229871Y-152255008D01*
X136529588Y-151938378D01*
X136800354Y-151548519D01*
X137003264Y-151136718D01*
X137141853Y-150628221D01*
X137218019Y-150015005D01*
X137230661Y-149455720D01*
X137075334Y-149455720D01*
X137075334Y-149818275D01*
X137028479Y-150237216D01*
X136902091Y-150725785D01*
X136717435Y-151217545D01*
X136495775Y-151646058D01*
X136484642Y-151663782D01*
X136305432Y-151915475D01*
X136113312Y-152103052D01*
X135880762Y-152235453D01*
X135580261Y-152321620D01*
X135184290Y-152370493D01*
X134665328Y-152391014D01*
X134239000Y-152393362D01*
X133703240Y-152384949D01*
X133244775Y-152363656D01*
X132893986Y-152331504D01*
X132681251Y-152290518D01*
X132677935Y-152289388D01*
X132455975Y-152166357D01*
X132249167Y-151940764D01*
X132105878Y-151722667D01*
X131914672Y-151406429D01*
X131721126Y-151087311D01*
X131613942Y-150911179D01*
X131480705Y-150616149D01*
X131384137Y-150256672D01*
X131332767Y-149889688D01*
X131335128Y-149572135D01*
X131385228Y-149384584D01*
X131497310Y-149283801D01*
X131735046Y-149138055D01*
X132066836Y-148965195D01*
X132411806Y-148804700D01*
X132823241Y-148612897D01*
X133128662Y-148449791D01*
X133308760Y-148326433D01*
X133350000Y-148267730D01*
X133292373Y-148188867D01*
X133114856Y-148195141D01*
X132810492Y-148288243D01*
X132372327Y-148469863D01*
X132204107Y-148546312D01*
X131905288Y-148680559D01*
X131671868Y-148778291D01*
X131540563Y-148824428D01*
X131524999Y-148825221D01*
X131545132Y-148742665D01*
X131621939Y-148554243D01*
X131705138Y-148372361D01*
X131900688Y-148038625D01*
X132174505Y-147670927D01*
X132489105Y-147311102D01*
X132807000Y-147000985D01*
X133090706Y-146782408D01*
X133169804Y-146737809D01*
X133435069Y-146638887D01*
X133807387Y-146540845D01*
X134237687Y-146452149D01*
X134676897Y-146381264D01*
X135075946Y-146336656D01*
X135385764Y-146326793D01*
X135490908Y-146337353D01*
X135727640Y-146442362D01*
X136009720Y-146656977D01*
X136298461Y-146943792D01*
X136555178Y-147265402D01*
X136706311Y-147512496D01*
X136782321Y-147709277D01*
X136872182Y-148011217D01*
X136960484Y-148356685D01*
X137031818Y-148684055D01*
X137070774Y-148931697D01*
X137073863Y-148982436D01*
X137000031Y-149005096D01*
X136788736Y-148964080D01*
X136457836Y-148863155D01*
X136376833Y-148835402D01*
X135914736Y-148685951D01*
X135591029Y-148609602D01*
X135392106Y-148604822D01*
X135304359Y-148670077D01*
X135297333Y-148713736D01*
X135375937Y-148816094D01*
X135588305Y-148909212D01*
X135657167Y-148928336D01*
X135932639Y-149011140D01*
X136277808Y-149132623D01*
X136546167Y-149237459D01*
X137075334Y-149455720D01*
X137230661Y-149455720D01*
X137233069Y-149349235D01*
X137188309Y-148683076D01*
X137085046Y-148068693D01*
X136924586Y-147558250D01*
X136912989Y-147531667D01*
X136713724Y-147184042D01*
X136439179Y-146835069D01*
X136129371Y-146526021D01*
X135824317Y-146298168D01*
X135628760Y-146207161D01*
X135340331Y-146165778D01*
X134939068Y-146166901D01*
G37*
X134939068Y-146166901D02*
X134474431Y-146204716D01*
X133995878Y-146273410D01*
X133552870Y-146367170D01*
X133194865Y-146480184D01*
X133151944Y-146498265D01*
X132731174Y-146756686D01*
X132307034Y-147150000D01*
X131907360Y-147646665D01*
X131559989Y-148215141D01*
X131461123Y-148414094D01*
X131304288Y-148756287D01*
X131208539Y-149006837D01*
X131161727Y-149226777D01*
X131151701Y-149477140D01*
X131166310Y-149818961D01*
X131169663Y-149878182D01*
X131198477Y-150264655D01*
X131242712Y-150539802D01*
X131317995Y-150761633D01*
X131439953Y-150988155D01*
X131490745Y-151070088D01*
X131685352Y-151384697D01*
X131880095Y-151709273D01*
X131975309Y-151873040D01*
X132109452Y-152087667D01*
X132251421Y-152249828D01*
X132426687Y-152367265D01*
X132660719Y-152447722D01*
X132978989Y-152498941D01*
X133406967Y-152528664D01*
X133970123Y-152544634D01*
X134196667Y-152548303D01*
X134795241Y-152553021D01*
X135247177Y-152546660D01*
X135574880Y-152527998D01*
X135800758Y-152495811D01*
X135937728Y-152453278D01*
X136229871Y-152255008D01*
X136529588Y-151938378D01*
X136800354Y-151548519D01*
X137003264Y-151136718D01*
X137141853Y-150628221D01*
X137218019Y-150015005D01*
X137230661Y-149455720D01*
X137075334Y-149455720D01*
X137075334Y-149818275D01*
X137028479Y-150237216D01*
X136902091Y-150725785D01*
X136717435Y-151217545D01*
X136495775Y-151646058D01*
X136484642Y-151663782D01*
X136305432Y-151915475D01*
X136113312Y-152103052D01*
X135880762Y-152235453D01*
X135580261Y-152321620D01*
X135184290Y-152370493D01*
X134665328Y-152391014D01*
X134239000Y-152393362D01*
X133703240Y-152384949D01*
X133244775Y-152363656D01*
X132893986Y-152331504D01*
X132681251Y-152290518D01*
X132677935Y-152289388D01*
X132455975Y-152166357D01*
X132249167Y-151940764D01*
X132105878Y-151722667D01*
X131914672Y-151406429D01*
X131721126Y-151087311D01*
X131613942Y-150911179D01*
X131480705Y-150616149D01*
X131384137Y-150256672D01*
X131332767Y-149889688D01*
X131335128Y-149572135D01*
X131385228Y-149384584D01*
X131497310Y-149283801D01*
X131735046Y-149138055D01*
X132066836Y-148965195D01*
X132411806Y-148804700D01*
X132823241Y-148612897D01*
X133128662Y-148449791D01*
X133308760Y-148326433D01*
X133350000Y-148267730D01*
X133292373Y-148188867D01*
X133114856Y-148195141D01*
X132810492Y-148288243D01*
X132372327Y-148469863D01*
X132204107Y-148546312D01*
X131905288Y-148680559D01*
X131671868Y-148778291D01*
X131540563Y-148824428D01*
X131524999Y-148825221D01*
X131545132Y-148742665D01*
X131621939Y-148554243D01*
X131705138Y-148372361D01*
X131900688Y-148038625D01*
X132174505Y-147670927D01*
X132489105Y-147311102D01*
X132807000Y-147000985D01*
X133090706Y-146782408D01*
X133169804Y-146737809D01*
X133435069Y-146638887D01*
X133807387Y-146540845D01*
X134237687Y-146452149D01*
X134676897Y-146381264D01*
X135075946Y-146336656D01*
X135385764Y-146326793D01*
X135490908Y-146337353D01*
X135727640Y-146442362D01*
X136009720Y-146656977D01*
X136298461Y-146943792D01*
X136555178Y-147265402D01*
X136706311Y-147512496D01*
X136782321Y-147709277D01*
X136872182Y-148011217D01*
X136960484Y-148356685D01*
X137031818Y-148684055D01*
X137070774Y-148931697D01*
X137073863Y-148982436D01*
X137000031Y-149005096D01*
X136788736Y-148964080D01*
X136457836Y-148863155D01*
X136376833Y-148835402D01*
X135914736Y-148685951D01*
X135591029Y-148609602D01*
X135392106Y-148604822D01*
X135304359Y-148670077D01*
X135297333Y-148713736D01*
X135375937Y-148816094D01*
X135588305Y-148909212D01*
X135657167Y-148928336D01*
X135932639Y-149011140D01*
X136277808Y-149132623D01*
X136546167Y-149237459D01*
X137075334Y-149455720D01*
X137230661Y-149455720D01*
X137233069Y-149349235D01*
X137188309Y-148683076D01*
X137085046Y-148068693D01*
X136924586Y-147558250D01*
X136912989Y-147531667D01*
X136713724Y-147184042D01*
X136439179Y-146835069D01*
X136129371Y-146526021D01*
X135824317Y-146298168D01*
X135628760Y-146207161D01*
X135340331Y-146165778D01*
X134939068Y-146166901D01*
D13*
%TO.C,U6*%
X135905000Y-114835000D02*
X144765000Y-114835000D01*
X144765000Y-102335000D02*
X135905000Y-102335000D01*
X133585000Y-104655000D02*
X133585000Y-112515000D01*
D14*
X148435000Y-114085000D02*
G75*
G03*
X148435000Y-114085000I-100000J0D01*
G01*
D13*
X147085000Y-112515000D02*
X147085000Y-104655000D01*
%TO.C,JP3*%
D12*
X145502380Y-97972666D02*
X146216666Y-97972666D01*
X146359523Y-97925047D01*
X146454761Y-97829809D01*
X146502380Y-97686952D01*
X146502380Y-97591714D01*
X146502380Y-98448857D02*
X145502380Y-98448857D01*
X145502380Y-98829809D01*
X145550000Y-98925047D01*
X145597619Y-98972666D01*
X145692857Y-99020285D01*
X145835714Y-99020285D01*
X145930952Y-98972666D01*
X145978571Y-98925047D01*
X146026190Y-98829809D01*
X146026190Y-98448857D01*
X145502380Y-99353619D02*
X145502380Y-99972666D01*
X145883333Y-99639333D01*
X145883333Y-99782190D01*
X145930952Y-99877428D01*
X145978571Y-99925047D01*
X146073809Y-99972666D01*
X146311904Y-99972666D01*
X146407142Y-99925047D01*
X146454761Y-99877428D01*
X146502380Y-99782190D01*
X146502380Y-99496476D01*
X146454761Y-99401238D01*
X146407142Y-99353619D01*
%TO.C,JP2*%
X128992380Y-151566666D02*
X129706666Y-151566666D01*
X129849523Y-151519047D01*
X129944761Y-151423809D01*
X129992380Y-151280952D01*
X129992380Y-151185714D01*
X129992380Y-152042857D02*
X128992380Y-152042857D01*
X128992380Y-152423809D01*
X129040000Y-152519047D01*
X129087619Y-152566666D01*
X129182857Y-152614285D01*
X129325714Y-152614285D01*
X129420952Y-152566666D01*
X129468571Y-152519047D01*
X129516190Y-152423809D01*
X129516190Y-152042857D01*
X129087619Y-152995238D02*
X129040000Y-153042857D01*
X128992380Y-153138095D01*
X128992380Y-153376190D01*
X129040000Y-153471428D01*
X129087619Y-153519047D01*
X129182857Y-153566666D01*
X129278095Y-153566666D01*
X129420952Y-153519047D01*
X129992380Y-152947619D01*
X129992380Y-153566666D01*
%TO.C,U17*%
X126960380Y-98583904D02*
X127769904Y-98583904D01*
X127865142Y-98631523D01*
X127912761Y-98679142D01*
X127960380Y-98774380D01*
X127960380Y-98964857D01*
X127912761Y-99060095D01*
X127865142Y-99107714D01*
X127769904Y-99155333D01*
X126960380Y-99155333D01*
X127960380Y-100155333D02*
X127960380Y-99583904D01*
X127960380Y-99869619D02*
X126960380Y-99869619D01*
X127103238Y-99774380D01*
X127198476Y-99679142D01*
X127246095Y-99583904D01*
X126960380Y-100488666D02*
X126960380Y-101155333D01*
X127960380Y-100726761D01*
%TO.C,D11*%
X131389285Y-109744380D02*
X131389285Y-108744380D01*
X131151190Y-108744380D01*
X131008333Y-108792000D01*
X130913095Y-108887238D01*
X130865476Y-108982476D01*
X130817857Y-109172952D01*
X130817857Y-109315809D01*
X130865476Y-109506285D01*
X130913095Y-109601523D01*
X131008333Y-109696761D01*
X131151190Y-109744380D01*
X131389285Y-109744380D01*
X129865476Y-109744380D02*
X130436904Y-109744380D01*
X130151190Y-109744380D02*
X130151190Y-108744380D01*
X130246428Y-108887238D01*
X130341666Y-108982476D01*
X130436904Y-109030095D01*
X128913095Y-109744380D02*
X129484523Y-109744380D01*
X129198809Y-109744380D02*
X129198809Y-108744380D01*
X129294047Y-108887238D01*
X129389285Y-108982476D01*
X129484523Y-109030095D01*
%TO.C,D9*%
X124690095Y-121682380D02*
X124690095Y-120682380D01*
X124452000Y-120682380D01*
X124309142Y-120730000D01*
X124213904Y-120825238D01*
X124166285Y-120920476D01*
X124118666Y-121110952D01*
X124118666Y-121253809D01*
X124166285Y-121444285D01*
X124213904Y-121539523D01*
X124309142Y-121634761D01*
X124452000Y-121682380D01*
X124690095Y-121682380D01*
X123642476Y-121682380D02*
X123452000Y-121682380D01*
X123356761Y-121634761D01*
X123309142Y-121587142D01*
X123213904Y-121444285D01*
X123166285Y-121253809D01*
X123166285Y-120872857D01*
X123213904Y-120777619D01*
X123261523Y-120730000D01*
X123356761Y-120682380D01*
X123547238Y-120682380D01*
X123642476Y-120730000D01*
X123690095Y-120777619D01*
X123737714Y-120872857D01*
X123737714Y-121110952D01*
X123690095Y-121206190D01*
X123642476Y-121253809D01*
X123547238Y-121301428D01*
X123356761Y-121301428D01*
X123261523Y-121253809D01*
X123213904Y-121206190D01*
X123166285Y-121110952D01*
%TO.C,D4*%
X145010095Y-147518380D02*
X145010095Y-146518380D01*
X144772000Y-146518380D01*
X144629142Y-146566000D01*
X144533904Y-146661238D01*
X144486285Y-146756476D01*
X144438666Y-146946952D01*
X144438666Y-147089809D01*
X144486285Y-147280285D01*
X144533904Y-147375523D01*
X144629142Y-147470761D01*
X144772000Y-147518380D01*
X145010095Y-147518380D01*
X143581523Y-146851714D02*
X143581523Y-147518380D01*
X143819619Y-146470761D02*
X144057714Y-147185047D01*
X143438666Y-147185047D01*
%TO.C,D1*%
X134001380Y-105043904D02*
X133001380Y-105043904D01*
X133001380Y-105282000D01*
X133049000Y-105424857D01*
X133144238Y-105520095D01*
X133239476Y-105567714D01*
X133429952Y-105615333D01*
X133572809Y-105615333D01*
X133763285Y-105567714D01*
X133858523Y-105520095D01*
X133953761Y-105424857D01*
X134001380Y-105282000D01*
X134001380Y-105043904D01*
X134001380Y-106567714D02*
X134001380Y-105996285D01*
X134001380Y-106282000D02*
X133001380Y-106282000D01*
X133144238Y-106186761D01*
X133239476Y-106091523D01*
X133287095Y-105996285D01*
%TO.C,JP1*%
X147518333Y-136822380D02*
X147518333Y-137536666D01*
X147565952Y-137679523D01*
X147661190Y-137774761D01*
X147804047Y-137822380D01*
X147899285Y-137822380D01*
X147042142Y-137822380D02*
X147042142Y-136822380D01*
X146661190Y-136822380D01*
X146565952Y-136870000D01*
X146518333Y-136917619D01*
X146470714Y-137012857D01*
X146470714Y-137155714D01*
X146518333Y-137250952D01*
X146565952Y-137298571D01*
X146661190Y-137346190D01*
X147042142Y-137346190D01*
X145518333Y-137822380D02*
X146089761Y-137822380D01*
X145804047Y-137822380D02*
X145804047Y-136822380D01*
X145899285Y-136965238D01*
X145994523Y-137060476D01*
X146089761Y-137108095D01*
%TO.C,Q1*%
X128984619Y-142271761D02*
X128937000Y-142176523D01*
X128841761Y-142081285D01*
X128698904Y-141938428D01*
X128651285Y-141843190D01*
X128651285Y-141747952D01*
X128889380Y-141795571D02*
X128841761Y-141700333D01*
X128746523Y-141605095D01*
X128556047Y-141557476D01*
X128222714Y-141557476D01*
X128032238Y-141605095D01*
X127937000Y-141700333D01*
X127889380Y-141795571D01*
X127889380Y-141986047D01*
X127937000Y-142081285D01*
X128032238Y-142176523D01*
X128222714Y-142224142D01*
X128556047Y-142224142D01*
X128746523Y-142176523D01*
X128841761Y-142081285D01*
X128889380Y-141986047D01*
X128889380Y-141795571D01*
X128889380Y-143176523D02*
X128889380Y-142605095D01*
X128889380Y-142890809D02*
X127889380Y-142890809D01*
X128032238Y-142795571D01*
X128127476Y-142700333D01*
X128175095Y-142605095D01*
%TO.C,C9*%
X123843166Y-107291142D02*
X123890785Y-107338761D01*
X124033642Y-107386380D01*
X124128880Y-107386380D01*
X124271738Y-107338761D01*
X124366976Y-107243523D01*
X124414595Y-107148285D01*
X124462214Y-106957809D01*
X124462214Y-106814952D01*
X124414595Y-106624476D01*
X124366976Y-106529238D01*
X124271738Y-106434000D01*
X124128880Y-106386380D01*
X124033642Y-106386380D01*
X123890785Y-106434000D01*
X123843166Y-106481619D01*
X123366976Y-107386380D02*
X123176500Y-107386380D01*
X123081261Y-107338761D01*
X123033642Y-107291142D01*
X122938404Y-107148285D01*
X122890785Y-106957809D01*
X122890785Y-106576857D01*
X122938404Y-106481619D01*
X122986023Y-106434000D01*
X123081261Y-106386380D01*
X123271738Y-106386380D01*
X123366976Y-106434000D01*
X123414595Y-106481619D01*
X123462214Y-106576857D01*
X123462214Y-106814952D01*
X123414595Y-106910190D01*
X123366976Y-106957809D01*
X123271738Y-107005428D01*
X123081261Y-107005428D01*
X122986023Y-106957809D01*
X122938404Y-106910190D01*
X122890785Y-106814952D01*
%TO.C,J2*%
X129754380Y-121459666D02*
X130468666Y-121459666D01*
X130611523Y-121412047D01*
X130706761Y-121316809D01*
X130754380Y-121173952D01*
X130754380Y-121078714D01*
X129849619Y-121888238D02*
X129802000Y-121935857D01*
X129754380Y-122031095D01*
X129754380Y-122269190D01*
X129802000Y-122364428D01*
X129849619Y-122412047D01*
X129944857Y-122459666D01*
X130040095Y-122459666D01*
X130182952Y-122412047D01*
X130754380Y-121840619D01*
X130754380Y-122459666D01*
%TO.C,C1*%
X146597666Y-147423142D02*
X146645285Y-147470761D01*
X146788142Y-147518380D01*
X146883380Y-147518380D01*
X147026238Y-147470761D01*
X147121476Y-147375523D01*
X147169095Y-147280285D01*
X147216714Y-147089809D01*
X147216714Y-146946952D01*
X147169095Y-146756476D01*
X147121476Y-146661238D01*
X147026238Y-146566000D01*
X146883380Y-146518380D01*
X146788142Y-146518380D01*
X146645285Y-146566000D01*
X146597666Y-146613619D01*
X145645285Y-147518380D02*
X146216714Y-147518380D01*
X145931000Y-147518380D02*
X145931000Y-146518380D01*
X146026238Y-146661238D01*
X146121476Y-146756476D01*
X146216714Y-146804095D01*
%TO.C,U16*%
X133695380Y-77882904D02*
X134504904Y-77882904D01*
X134600142Y-77930523D01*
X134647761Y-77978142D01*
X134695380Y-78073380D01*
X134695380Y-78263857D01*
X134647761Y-78359095D01*
X134600142Y-78406714D01*
X134504904Y-78454333D01*
X133695380Y-78454333D01*
X134695380Y-79454333D02*
X134695380Y-78882904D01*
X134695380Y-79168619D02*
X133695380Y-79168619D01*
X133838238Y-79073380D01*
X133933476Y-78978142D01*
X133981095Y-78882904D01*
X133695380Y-80311476D02*
X133695380Y-80121000D01*
X133743000Y-80025761D01*
X133790619Y-79978142D01*
X133933476Y-79882904D01*
X134123952Y-79835285D01*
X134504904Y-79835285D01*
X134600142Y-79882904D01*
X134647761Y-79930523D01*
X134695380Y-80025761D01*
X134695380Y-80216238D01*
X134647761Y-80311476D01*
X134600142Y-80359095D01*
X134504904Y-80406714D01*
X134266809Y-80406714D01*
X134171571Y-80359095D01*
X134123952Y-80311476D01*
X134076333Y-80216238D01*
X134076333Y-80025761D01*
X134123952Y-79930523D01*
X134171571Y-79882904D01*
X134266809Y-79835285D01*
%TO.C,U4*%
X147700904Y-143851380D02*
X147700904Y-144660904D01*
X147653285Y-144756142D01*
X147605666Y-144803761D01*
X147510428Y-144851380D01*
X147319952Y-144851380D01*
X147224714Y-144803761D01*
X147177095Y-144756142D01*
X147129476Y-144660904D01*
X147129476Y-143851380D01*
X146224714Y-144184714D02*
X146224714Y-144851380D01*
X146462809Y-143803761D02*
X146700904Y-144518047D01*
X146081857Y-144518047D01*
%TO.C,R13*%
X151026857Y-137486380D02*
X151360190Y-137010190D01*
X151598285Y-137486380D02*
X151598285Y-136486380D01*
X151217333Y-136486380D01*
X151122095Y-136534000D01*
X151074476Y-136581619D01*
X151026857Y-136676857D01*
X151026857Y-136819714D01*
X151074476Y-136914952D01*
X151122095Y-136962571D01*
X151217333Y-137010190D01*
X151598285Y-137010190D01*
X150074476Y-137486380D02*
X150645904Y-137486380D01*
X150360190Y-137486380D02*
X150360190Y-136486380D01*
X150455428Y-136629238D01*
X150550666Y-136724476D01*
X150645904Y-136772095D01*
X149741142Y-136486380D02*
X149122095Y-136486380D01*
X149455428Y-136867333D01*
X149312571Y-136867333D01*
X149217333Y-136914952D01*
X149169714Y-136962571D01*
X149122095Y-137057809D01*
X149122095Y-137295904D01*
X149169714Y-137391142D01*
X149217333Y-137438761D01*
X149312571Y-137486380D01*
X149598285Y-137486380D01*
X149693523Y-137438761D01*
X149741142Y-137391142D01*
%TO.C,U14*%
X138906095Y-69302380D02*
X138906095Y-70111904D01*
X138858476Y-70207142D01*
X138810857Y-70254761D01*
X138715619Y-70302380D01*
X138525142Y-70302380D01*
X138429904Y-70254761D01*
X138382285Y-70207142D01*
X138334666Y-70111904D01*
X138334666Y-69302380D01*
X137334666Y-70302380D02*
X137906095Y-70302380D01*
X137620380Y-70302380D02*
X137620380Y-69302380D01*
X137715619Y-69445238D01*
X137810857Y-69540476D01*
X137906095Y-69588095D01*
X136477523Y-69635714D02*
X136477523Y-70302380D01*
X136715619Y-69254761D02*
X136953714Y-69969047D01*
X136334666Y-69969047D01*
%TO.C,U13*%
X138906095Y-76922380D02*
X138906095Y-77731904D01*
X138858476Y-77827142D01*
X138810857Y-77874761D01*
X138715619Y-77922380D01*
X138525142Y-77922380D01*
X138429904Y-77874761D01*
X138382285Y-77827142D01*
X138334666Y-77731904D01*
X138334666Y-76922380D01*
X137334666Y-77922380D02*
X137906095Y-77922380D01*
X137620380Y-77922380D02*
X137620380Y-76922380D01*
X137715619Y-77065238D01*
X137810857Y-77160476D01*
X137906095Y-77208095D01*
X137001333Y-76922380D02*
X136382285Y-76922380D01*
X136715619Y-77303333D01*
X136572761Y-77303333D01*
X136477523Y-77350952D01*
X136429904Y-77398571D01*
X136382285Y-77493809D01*
X136382285Y-77731904D01*
X136429904Y-77827142D01*
X136477523Y-77874761D01*
X136572761Y-77922380D01*
X136858476Y-77922380D01*
X136953714Y-77874761D01*
X137001333Y-77827142D01*
%TO.C,U12*%
X138779095Y-82891380D02*
X138779095Y-83700904D01*
X138731476Y-83796142D01*
X138683857Y-83843761D01*
X138588619Y-83891380D01*
X138398142Y-83891380D01*
X138302904Y-83843761D01*
X138255285Y-83796142D01*
X138207666Y-83700904D01*
X138207666Y-82891380D01*
X137207666Y-83891380D02*
X137779095Y-83891380D01*
X137493380Y-83891380D02*
X137493380Y-82891380D01*
X137588619Y-83034238D01*
X137683857Y-83129476D01*
X137779095Y-83177095D01*
X136826714Y-82986619D02*
X136779095Y-82939000D01*
X136683857Y-82891380D01*
X136445761Y-82891380D01*
X136350523Y-82939000D01*
X136302904Y-82986619D01*
X136255285Y-83081857D01*
X136255285Y-83177095D01*
X136302904Y-83319952D01*
X136874333Y-83891380D01*
X136255285Y-83891380D01*
%TO.C,U11*%
X138906095Y-90257380D02*
X138906095Y-91066904D01*
X138858476Y-91162142D01*
X138810857Y-91209761D01*
X138715619Y-91257380D01*
X138525142Y-91257380D01*
X138429904Y-91209761D01*
X138382285Y-91162142D01*
X138334666Y-91066904D01*
X138334666Y-90257380D01*
X137334666Y-91257380D02*
X137906095Y-91257380D01*
X137620380Y-91257380D02*
X137620380Y-90257380D01*
X137715619Y-90400238D01*
X137810857Y-90495476D01*
X137906095Y-90543095D01*
X136382285Y-91257380D02*
X136953714Y-91257380D01*
X136668000Y-91257380D02*
X136668000Y-90257380D01*
X136763238Y-90400238D01*
X136858476Y-90495476D01*
X136953714Y-90543095D01*
%TO.C,R10*%
X148154380Y-131961142D02*
X147678190Y-131627809D01*
X148154380Y-131389714D02*
X147154380Y-131389714D01*
X147154380Y-131770666D01*
X147202000Y-131865904D01*
X147249619Y-131913523D01*
X147344857Y-131961142D01*
X147487714Y-131961142D01*
X147582952Y-131913523D01*
X147630571Y-131865904D01*
X147678190Y-131770666D01*
X147678190Y-131389714D01*
X148154380Y-132913523D02*
X148154380Y-132342095D01*
X148154380Y-132627809D02*
X147154380Y-132627809D01*
X147297238Y-132532571D01*
X147392476Y-132437333D01*
X147440095Y-132342095D01*
X147154380Y-133532571D02*
X147154380Y-133627809D01*
X147202000Y-133723047D01*
X147249619Y-133770666D01*
X147344857Y-133818285D01*
X147535333Y-133865904D01*
X147773428Y-133865904D01*
X147963904Y-133818285D01*
X148059142Y-133770666D01*
X148106761Y-133723047D01*
X148154380Y-133627809D01*
X148154380Y-133532571D01*
X148106761Y-133437333D01*
X148059142Y-133389714D01*
X147963904Y-133342095D01*
X147773428Y-133294476D01*
X147535333Y-133294476D01*
X147344857Y-133342095D01*
X147249619Y-133389714D01*
X147202000Y-133437333D01*
X147154380Y-133532571D01*
%TO.C,R9*%
X129610380Y-139406333D02*
X129134190Y-139073000D01*
X129610380Y-138834904D02*
X128610380Y-138834904D01*
X128610380Y-139215857D01*
X128658000Y-139311095D01*
X128705619Y-139358714D01*
X128800857Y-139406333D01*
X128943714Y-139406333D01*
X129038952Y-139358714D01*
X129086571Y-139311095D01*
X129134190Y-139215857D01*
X129134190Y-138834904D01*
X129610380Y-139882523D02*
X129610380Y-140073000D01*
X129562761Y-140168238D01*
X129515142Y-140215857D01*
X129372285Y-140311095D01*
X129181809Y-140358714D01*
X128800857Y-140358714D01*
X128705619Y-140311095D01*
X128658000Y-140263476D01*
X128610380Y-140168238D01*
X128610380Y-139977761D01*
X128658000Y-139882523D01*
X128705619Y-139834904D01*
X128800857Y-139787285D01*
X129038952Y-139787285D01*
X129134190Y-139834904D01*
X129181809Y-139882523D01*
X129229428Y-139977761D01*
X129229428Y-140168238D01*
X129181809Y-140263476D01*
X129134190Y-140311095D01*
X129038952Y-140358714D01*
%TO.C,R8*%
X133770666Y-90494380D02*
X134104000Y-90018190D01*
X134342095Y-90494380D02*
X134342095Y-89494380D01*
X133961142Y-89494380D01*
X133865904Y-89542000D01*
X133818285Y-89589619D01*
X133770666Y-89684857D01*
X133770666Y-89827714D01*
X133818285Y-89922952D01*
X133865904Y-89970571D01*
X133961142Y-90018190D01*
X134342095Y-90018190D01*
X133199238Y-89922952D02*
X133294476Y-89875333D01*
X133342095Y-89827714D01*
X133389714Y-89732476D01*
X133389714Y-89684857D01*
X133342095Y-89589619D01*
X133294476Y-89542000D01*
X133199238Y-89494380D01*
X133008761Y-89494380D01*
X132913523Y-89542000D01*
X132865904Y-89589619D01*
X132818285Y-89684857D01*
X132818285Y-89732476D01*
X132865904Y-89827714D01*
X132913523Y-89875333D01*
X133008761Y-89922952D01*
X133199238Y-89922952D01*
X133294476Y-89970571D01*
X133342095Y-90018190D01*
X133389714Y-90113428D01*
X133389714Y-90303904D01*
X133342095Y-90399142D01*
X133294476Y-90446761D01*
X133199238Y-90494380D01*
X133008761Y-90494380D01*
X132913523Y-90446761D01*
X132865904Y-90399142D01*
X132818285Y-90303904D01*
X132818285Y-90113428D01*
X132865904Y-90018190D01*
X132913523Y-89970571D01*
X133008761Y-89922952D01*
%TO.C,R6*%
X133166380Y-136977333D02*
X132690190Y-136644000D01*
X133166380Y-136405904D02*
X132166380Y-136405904D01*
X132166380Y-136786857D01*
X132214000Y-136882095D01*
X132261619Y-136929714D01*
X132356857Y-136977333D01*
X132499714Y-136977333D01*
X132594952Y-136929714D01*
X132642571Y-136882095D01*
X132690190Y-136786857D01*
X132690190Y-136405904D01*
X132166380Y-137834476D02*
X132166380Y-137644000D01*
X132214000Y-137548761D01*
X132261619Y-137501142D01*
X132404476Y-137405904D01*
X132594952Y-137358285D01*
X132975904Y-137358285D01*
X133071142Y-137405904D01*
X133118761Y-137453523D01*
X133166380Y-137548761D01*
X133166380Y-137739238D01*
X133118761Y-137834476D01*
X133071142Y-137882095D01*
X132975904Y-137929714D01*
X132737809Y-137929714D01*
X132642571Y-137882095D01*
X132594952Y-137834476D01*
X132547333Y-137739238D01*
X132547333Y-137548761D01*
X132594952Y-137453523D01*
X132642571Y-137405904D01*
X132737809Y-137358285D01*
%TO.C,R5*%
X127197380Y-87844333D02*
X126721190Y-87511000D01*
X127197380Y-87272904D02*
X126197380Y-87272904D01*
X126197380Y-87653857D01*
X126245000Y-87749095D01*
X126292619Y-87796714D01*
X126387857Y-87844333D01*
X126530714Y-87844333D01*
X126625952Y-87796714D01*
X126673571Y-87749095D01*
X126721190Y-87653857D01*
X126721190Y-87272904D01*
X126197380Y-88749095D02*
X126197380Y-88272904D01*
X126673571Y-88225285D01*
X126625952Y-88272904D01*
X126578333Y-88368142D01*
X126578333Y-88606238D01*
X126625952Y-88701476D01*
X126673571Y-88749095D01*
X126768809Y-88796714D01*
X127006904Y-88796714D01*
X127102142Y-88749095D01*
X127149761Y-88701476D01*
X127197380Y-88606238D01*
X127197380Y-88368142D01*
X127149761Y-88272904D01*
X127102142Y-88225285D01*
%TO.C,R4*%
X131484666Y-130627380D02*
X131818000Y-130151190D01*
X132056095Y-130627380D02*
X132056095Y-129627380D01*
X131675142Y-129627380D01*
X131579904Y-129675000D01*
X131532285Y-129722619D01*
X131484666Y-129817857D01*
X131484666Y-129960714D01*
X131532285Y-130055952D01*
X131579904Y-130103571D01*
X131675142Y-130151190D01*
X132056095Y-130151190D01*
X130627523Y-129960714D02*
X130627523Y-130627380D01*
X130865619Y-129579761D02*
X131103714Y-130294047D01*
X130484666Y-130294047D01*
%TO.C,R3*%
X131611666Y-124659380D02*
X131945000Y-124183190D01*
X132183095Y-124659380D02*
X132183095Y-123659380D01*
X131802142Y-123659380D01*
X131706904Y-123707000D01*
X131659285Y-123754619D01*
X131611666Y-123849857D01*
X131611666Y-123992714D01*
X131659285Y-124087952D01*
X131706904Y-124135571D01*
X131802142Y-124183190D01*
X132183095Y-124183190D01*
X131278333Y-123659380D02*
X130659285Y-123659380D01*
X130992619Y-124040333D01*
X130849761Y-124040333D01*
X130754523Y-124087952D01*
X130706904Y-124135571D01*
X130659285Y-124230809D01*
X130659285Y-124468904D01*
X130706904Y-124564142D01*
X130754523Y-124611761D01*
X130849761Y-124659380D01*
X131135476Y-124659380D01*
X131230714Y-124611761D01*
X131278333Y-124564142D01*
%TO.C,R2*%
X142566380Y-132421333D02*
X142090190Y-132088000D01*
X142566380Y-131849904D02*
X141566380Y-131849904D01*
X141566380Y-132230857D01*
X141614000Y-132326095D01*
X141661619Y-132373714D01*
X141756857Y-132421333D01*
X141899714Y-132421333D01*
X141994952Y-132373714D01*
X142042571Y-132326095D01*
X142090190Y-132230857D01*
X142090190Y-131849904D01*
X141661619Y-132802285D02*
X141614000Y-132849904D01*
X141566380Y-132945142D01*
X141566380Y-133183238D01*
X141614000Y-133278476D01*
X141661619Y-133326095D01*
X141756857Y-133373714D01*
X141852095Y-133373714D01*
X141994952Y-133326095D01*
X142566380Y-132754666D01*
X142566380Y-133373714D01*
%TO.C,R1*%
X143549666Y-128215380D02*
X143883000Y-127739190D01*
X144121095Y-128215380D02*
X144121095Y-127215380D01*
X143740142Y-127215380D01*
X143644904Y-127263000D01*
X143597285Y-127310619D01*
X143549666Y-127405857D01*
X143549666Y-127548714D01*
X143597285Y-127643952D01*
X143644904Y-127691571D01*
X143740142Y-127739190D01*
X144121095Y-127739190D01*
X142597285Y-128215380D02*
X143168714Y-128215380D01*
X142883000Y-128215380D02*
X142883000Y-127215380D01*
X142978238Y-127358238D01*
X143073476Y-127453476D01*
X143168714Y-127501095D01*
%TO.C,D12*%
X151836285Y-74112380D02*
X151836285Y-73112380D01*
X151598190Y-73112380D01*
X151455333Y-73160000D01*
X151360095Y-73255238D01*
X151312476Y-73350476D01*
X151264857Y-73540952D01*
X151264857Y-73683809D01*
X151312476Y-73874285D01*
X151360095Y-73969523D01*
X151455333Y-74064761D01*
X151598190Y-74112380D01*
X151836285Y-74112380D01*
X150312476Y-74112380D02*
X150883904Y-74112380D01*
X150598190Y-74112380D02*
X150598190Y-73112380D01*
X150693428Y-73255238D01*
X150788666Y-73350476D01*
X150883904Y-73398095D01*
X149931523Y-73207619D02*
X149883904Y-73160000D01*
X149788666Y-73112380D01*
X149550571Y-73112380D01*
X149455333Y-73160000D01*
X149407714Y-73207619D01*
X149360095Y-73302857D01*
X149360095Y-73398095D01*
X149407714Y-73540952D01*
X149979142Y-74112380D01*
X149360095Y-74112380D01*
%TO.C,D10*%
X152090285Y-80843380D02*
X152090285Y-79843380D01*
X151852190Y-79843380D01*
X151709333Y-79891000D01*
X151614095Y-79986238D01*
X151566476Y-80081476D01*
X151518857Y-80271952D01*
X151518857Y-80414809D01*
X151566476Y-80605285D01*
X151614095Y-80700523D01*
X151709333Y-80795761D01*
X151852190Y-80843380D01*
X152090285Y-80843380D01*
X150566476Y-80843380D02*
X151137904Y-80843380D01*
X150852190Y-80843380D02*
X150852190Y-79843380D01*
X150947428Y-79986238D01*
X151042666Y-80081476D01*
X151137904Y-80129095D01*
X149947428Y-79843380D02*
X149852190Y-79843380D01*
X149756952Y-79891000D01*
X149709333Y-79938619D01*
X149661714Y-80033857D01*
X149614095Y-80224333D01*
X149614095Y-80462428D01*
X149661714Y-80652904D01*
X149709333Y-80748142D01*
X149756952Y-80795761D01*
X149852190Y-80843380D01*
X149947428Y-80843380D01*
X150042666Y-80795761D01*
X150090285Y-80748142D01*
X150137904Y-80652904D01*
X150185523Y-80462428D01*
X150185523Y-80224333D01*
X150137904Y-80033857D01*
X150090285Y-79938619D01*
X150042666Y-79891000D01*
X149947428Y-79843380D01*
%TO.C,D8*%
X150979095Y-87574380D02*
X150979095Y-86574380D01*
X150741000Y-86574380D01*
X150598142Y-86622000D01*
X150502904Y-86717238D01*
X150455285Y-86812476D01*
X150407666Y-87002952D01*
X150407666Y-87145809D01*
X150455285Y-87336285D01*
X150502904Y-87431523D01*
X150598142Y-87526761D01*
X150741000Y-87574380D01*
X150979095Y-87574380D01*
X149836238Y-87002952D02*
X149931476Y-86955333D01*
X149979095Y-86907714D01*
X150026714Y-86812476D01*
X150026714Y-86764857D01*
X149979095Y-86669619D01*
X149931476Y-86622000D01*
X149836238Y-86574380D01*
X149645761Y-86574380D01*
X149550523Y-86622000D01*
X149502904Y-86669619D01*
X149455285Y-86764857D01*
X149455285Y-86812476D01*
X149502904Y-86907714D01*
X149550523Y-86955333D01*
X149645761Y-87002952D01*
X149836238Y-87002952D01*
X149931476Y-87050571D01*
X149979095Y-87098190D01*
X150026714Y-87193428D01*
X150026714Y-87383904D01*
X149979095Y-87479142D01*
X149931476Y-87526761D01*
X149836238Y-87574380D01*
X149645761Y-87574380D01*
X149550523Y-87526761D01*
X149502904Y-87479142D01*
X149455285Y-87383904D01*
X149455285Y-87193428D01*
X149502904Y-87098190D01*
X149550523Y-87050571D01*
X149645761Y-87002952D01*
%TO.C,D6*%
X150852095Y-89352380D02*
X150852095Y-88352380D01*
X150614000Y-88352380D01*
X150471142Y-88400000D01*
X150375904Y-88495238D01*
X150328285Y-88590476D01*
X150280666Y-88780952D01*
X150280666Y-88923809D01*
X150328285Y-89114285D01*
X150375904Y-89209523D01*
X150471142Y-89304761D01*
X150614000Y-89352380D01*
X150852095Y-89352380D01*
X149423523Y-88352380D02*
X149614000Y-88352380D01*
X149709238Y-88400000D01*
X149756857Y-88447619D01*
X149852095Y-88590476D01*
X149899714Y-88780952D01*
X149899714Y-89161904D01*
X149852095Y-89257142D01*
X149804476Y-89304761D01*
X149709238Y-89352380D01*
X149518761Y-89352380D01*
X149423523Y-89304761D01*
X149375904Y-89257142D01*
X149328285Y-89161904D01*
X149328285Y-88923809D01*
X149375904Y-88828571D01*
X149423523Y-88780952D01*
X149518761Y-88733333D01*
X149709238Y-88733333D01*
X149804476Y-88780952D01*
X149852095Y-88828571D01*
X149899714Y-88923809D01*
%TO.C,C12*%
X141993857Y-73890142D02*
X142041476Y-73937761D01*
X142184333Y-73985380D01*
X142279571Y-73985380D01*
X142422428Y-73937761D01*
X142517666Y-73842523D01*
X142565285Y-73747285D01*
X142612904Y-73556809D01*
X142612904Y-73413952D01*
X142565285Y-73223476D01*
X142517666Y-73128238D01*
X142422428Y-73033000D01*
X142279571Y-72985380D01*
X142184333Y-72985380D01*
X142041476Y-73033000D01*
X141993857Y-73080619D01*
X141041476Y-73985380D02*
X141612904Y-73985380D01*
X141327190Y-73985380D02*
X141327190Y-72985380D01*
X141422428Y-73128238D01*
X141517666Y-73223476D01*
X141612904Y-73271095D01*
X140660523Y-73080619D02*
X140612904Y-73033000D01*
X140517666Y-72985380D01*
X140279571Y-72985380D01*
X140184333Y-73033000D01*
X140136714Y-73080619D01*
X140089095Y-73175857D01*
X140089095Y-73271095D01*
X140136714Y-73413952D01*
X140708142Y-73985380D01*
X140089095Y-73985380D01*
%TO.C,C10*%
X141993857Y-87225142D02*
X142041476Y-87272761D01*
X142184333Y-87320380D01*
X142279571Y-87320380D01*
X142422428Y-87272761D01*
X142517666Y-87177523D01*
X142565285Y-87082285D01*
X142612904Y-86891809D01*
X142612904Y-86748952D01*
X142565285Y-86558476D01*
X142517666Y-86463238D01*
X142422428Y-86368000D01*
X142279571Y-86320380D01*
X142184333Y-86320380D01*
X142041476Y-86368000D01*
X141993857Y-86415619D01*
X141041476Y-87320380D02*
X141612904Y-87320380D01*
X141327190Y-87320380D02*
X141327190Y-86320380D01*
X141422428Y-86463238D01*
X141517666Y-86558476D01*
X141612904Y-86606095D01*
X140422428Y-86320380D02*
X140327190Y-86320380D01*
X140231952Y-86368000D01*
X140184333Y-86415619D01*
X140136714Y-86510857D01*
X140089095Y-86701333D01*
X140089095Y-86939428D01*
X140136714Y-87129904D01*
X140184333Y-87225142D01*
X140231952Y-87272761D01*
X140327190Y-87320380D01*
X140422428Y-87320380D01*
X140517666Y-87272761D01*
X140565285Y-87225142D01*
X140612904Y-87129904D01*
X140660523Y-86939428D01*
X140660523Y-86701333D01*
X140612904Y-86510857D01*
X140565285Y-86415619D01*
X140517666Y-86368000D01*
X140422428Y-86320380D01*
%TO.C,C8*%
X148121666Y-74017142D02*
X148169285Y-74064761D01*
X148312142Y-74112380D01*
X148407380Y-74112380D01*
X148550238Y-74064761D01*
X148645476Y-73969523D01*
X148693095Y-73874285D01*
X148740714Y-73683809D01*
X148740714Y-73540952D01*
X148693095Y-73350476D01*
X148645476Y-73255238D01*
X148550238Y-73160000D01*
X148407380Y-73112380D01*
X148312142Y-73112380D01*
X148169285Y-73160000D01*
X148121666Y-73207619D01*
X147550238Y-73540952D02*
X147645476Y-73493333D01*
X147693095Y-73445714D01*
X147740714Y-73350476D01*
X147740714Y-73302857D01*
X147693095Y-73207619D01*
X147645476Y-73160000D01*
X147550238Y-73112380D01*
X147359761Y-73112380D01*
X147264523Y-73160000D01*
X147216904Y-73207619D01*
X147169285Y-73302857D01*
X147169285Y-73350476D01*
X147216904Y-73445714D01*
X147264523Y-73493333D01*
X147359761Y-73540952D01*
X147550238Y-73540952D01*
X147645476Y-73588571D01*
X147693095Y-73636190D01*
X147740714Y-73731428D01*
X147740714Y-73921904D01*
X147693095Y-74017142D01*
X147645476Y-74064761D01*
X147550238Y-74112380D01*
X147359761Y-74112380D01*
X147264523Y-74064761D01*
X147216904Y-74017142D01*
X147169285Y-73921904D01*
X147169285Y-73731428D01*
X147216904Y-73636190D01*
X147264523Y-73588571D01*
X147359761Y-73540952D01*
%TO.C,C7*%
X148121666Y-80748142D02*
X148169285Y-80795761D01*
X148312142Y-80843380D01*
X148407380Y-80843380D01*
X148550238Y-80795761D01*
X148645476Y-80700523D01*
X148693095Y-80605285D01*
X148740714Y-80414809D01*
X148740714Y-80271952D01*
X148693095Y-80081476D01*
X148645476Y-79986238D01*
X148550238Y-79891000D01*
X148407380Y-79843380D01*
X148312142Y-79843380D01*
X148169285Y-79891000D01*
X148121666Y-79938619D01*
X147788333Y-79843380D02*
X147121666Y-79843380D01*
X147550238Y-80843380D01*
%TO.C,C6*%
X148121666Y-87479142D02*
X148169285Y-87526761D01*
X148312142Y-87574380D01*
X148407380Y-87574380D01*
X148550238Y-87526761D01*
X148645476Y-87431523D01*
X148693095Y-87336285D01*
X148740714Y-87145809D01*
X148740714Y-87002952D01*
X148693095Y-86812476D01*
X148645476Y-86717238D01*
X148550238Y-86622000D01*
X148407380Y-86574380D01*
X148312142Y-86574380D01*
X148169285Y-86622000D01*
X148121666Y-86669619D01*
X147264523Y-86574380D02*
X147455000Y-86574380D01*
X147550238Y-86622000D01*
X147597857Y-86669619D01*
X147693095Y-86812476D01*
X147740714Y-87002952D01*
X147740714Y-87383904D01*
X147693095Y-87479142D01*
X147645476Y-87526761D01*
X147550238Y-87574380D01*
X147359761Y-87574380D01*
X147264523Y-87526761D01*
X147216904Y-87479142D01*
X147169285Y-87383904D01*
X147169285Y-87145809D01*
X147216904Y-87050571D01*
X147264523Y-87002952D01*
X147359761Y-86955333D01*
X147550238Y-86955333D01*
X147645476Y-87002952D01*
X147693095Y-87050571D01*
X147740714Y-87145809D01*
%TO.C,C5*%
X148121666Y-89257142D02*
X148169285Y-89304761D01*
X148312142Y-89352380D01*
X148407380Y-89352380D01*
X148550238Y-89304761D01*
X148645476Y-89209523D01*
X148693095Y-89114285D01*
X148740714Y-88923809D01*
X148740714Y-88780952D01*
X148693095Y-88590476D01*
X148645476Y-88495238D01*
X148550238Y-88400000D01*
X148407380Y-88352380D01*
X148312142Y-88352380D01*
X148169285Y-88400000D01*
X148121666Y-88447619D01*
X147216904Y-88352380D02*
X147693095Y-88352380D01*
X147740714Y-88828571D01*
X147693095Y-88780952D01*
X147597857Y-88733333D01*
X147359761Y-88733333D01*
X147264523Y-88780952D01*
X147216904Y-88828571D01*
X147169285Y-88923809D01*
X147169285Y-89161904D01*
X147216904Y-89257142D01*
X147264523Y-89304761D01*
X147359761Y-89352380D01*
X147597857Y-89352380D01*
X147693095Y-89304761D01*
X147740714Y-89257142D01*
%TO.C,C4*%
X133770666Y-101068142D02*
X133818285Y-101115761D01*
X133961142Y-101163380D01*
X134056380Y-101163380D01*
X134199238Y-101115761D01*
X134294476Y-101020523D01*
X134342095Y-100925285D01*
X134389714Y-100734809D01*
X134389714Y-100591952D01*
X134342095Y-100401476D01*
X134294476Y-100306238D01*
X134199238Y-100211000D01*
X134056380Y-100163380D01*
X133961142Y-100163380D01*
X133818285Y-100211000D01*
X133770666Y-100258619D01*
X132913523Y-100496714D02*
X132913523Y-101163380D01*
X133151619Y-100115761D02*
X133389714Y-100830047D01*
X132770666Y-100830047D01*
%TO.C,C2*%
X129106142Y-87336333D02*
X129153761Y-87288714D01*
X129201380Y-87145857D01*
X129201380Y-87050619D01*
X129153761Y-86907761D01*
X129058523Y-86812523D01*
X128963285Y-86764904D01*
X128772809Y-86717285D01*
X128629952Y-86717285D01*
X128439476Y-86764904D01*
X128344238Y-86812523D01*
X128249000Y-86907761D01*
X128201380Y-87050619D01*
X128201380Y-87145857D01*
X128249000Y-87288714D01*
X128296619Y-87336333D01*
X128296619Y-87717285D02*
X128249000Y-87764904D01*
X128201380Y-87860142D01*
X128201380Y-88098238D01*
X128249000Y-88193476D01*
X128296619Y-88241095D01*
X128391857Y-88288714D01*
X128487095Y-88288714D01*
X128629952Y-88241095D01*
X129201380Y-87669666D01*
X129201380Y-88288714D01*
%TO.C,U6*%
X148296380Y-111379095D02*
X149105904Y-111379095D01*
X149201142Y-111426714D01*
X149248761Y-111474333D01*
X149296380Y-111569571D01*
X149296380Y-111760047D01*
X149248761Y-111855285D01*
X149201142Y-111902904D01*
X149105904Y-111950523D01*
X148296380Y-111950523D01*
X148296380Y-112855285D02*
X148296380Y-112664809D01*
X148344000Y-112569571D01*
X148391619Y-112521952D01*
X148534476Y-112426714D01*
X148724952Y-112379095D01*
X149105904Y-112379095D01*
X149201142Y-112426714D01*
X149248761Y-112474333D01*
X149296380Y-112569571D01*
X149296380Y-112760047D01*
X149248761Y-112855285D01*
X149201142Y-112902904D01*
X149105904Y-112950523D01*
X148867809Y-112950523D01*
X148772571Y-112902904D01*
X148724952Y-112855285D01*
X148677333Y-112760047D01*
X148677333Y-112569571D01*
X148724952Y-112474333D01*
X148772571Y-112426714D01*
X148867809Y-112379095D01*
%TD*%
%LPC*%
%TO.C,JP3*%
G36*
G01*
X149786000Y-95260000D02*
X146886000Y-95260000D01*
G75*
G02*
X146636000Y-95010000I0J250000D01*
G01*
X146636000Y-94210000D01*
G75*
G02*
X146886000Y-93960000I250000J0D01*
G01*
X149786000Y-93960000D01*
G75*
G02*
X150036000Y-94210000I0J-250000D01*
G01*
X150036000Y-95010000D01*
G75*
G02*
X149786000Y-95260000I-250000J0D01*
G01*
G37*
G36*
G01*
X149786000Y-99710000D02*
X146886000Y-99710000D01*
G75*
G02*
X146636000Y-99460000I0J250000D01*
G01*
X146636000Y-98660000D01*
G75*
G02*
X146886000Y-98410000I250000J0D01*
G01*
X149786000Y-98410000D01*
G75*
G02*
X150036000Y-98660000I0J-250000D01*
G01*
X150036000Y-99460000D01*
G75*
G02*
X149786000Y-99710000I-250000J0D01*
G01*
G37*
%TD*%
D15*
%TO.C,JP2*%
X124460000Y-150455000D03*
G36*
G01*
X123710000Y-147105000D02*
X125210000Y-147105000D01*
G75*
G02*
X125460000Y-147355000I0J-250000D01*
G01*
X125460000Y-148555000D01*
G75*
G02*
X125210000Y-148805000I-250000J0D01*
G01*
X123710000Y-148805000D01*
G75*
G02*
X123460000Y-148555000I0J250000D01*
G01*
X123460000Y-147355000D01*
G75*
G02*
X123710000Y-147105000I250000J0D01*
G01*
G37*
%TD*%
%TO.C,U17*%
G36*
G01*
X122610000Y-100770000D02*
X122610000Y-100520000D01*
G75*
G02*
X122735000Y-100395000I125000J0D01*
G01*
X123910000Y-100395000D01*
G75*
G02*
X124035000Y-100520000I0J-125000D01*
G01*
X124035000Y-100770000D01*
G75*
G02*
X123910000Y-100895000I-125000J0D01*
G01*
X122735000Y-100895000D01*
G75*
G02*
X122610000Y-100770000I0J125000D01*
G01*
G37*
G36*
G01*
X122610000Y-99820000D02*
X122610000Y-99570000D01*
G75*
G02*
X122735000Y-99445000I125000J0D01*
G01*
X123910000Y-99445000D01*
G75*
G02*
X124035000Y-99570000I0J-125000D01*
G01*
X124035000Y-99820000D01*
G75*
G02*
X123910000Y-99945000I-125000J0D01*
G01*
X122735000Y-99945000D01*
G75*
G02*
X122610000Y-99820000I0J125000D01*
G01*
G37*
G36*
G01*
X122610000Y-98870000D02*
X122610000Y-98620000D01*
G75*
G02*
X122735000Y-98495000I125000J0D01*
G01*
X123910000Y-98495000D01*
G75*
G02*
X124035000Y-98620000I0J-125000D01*
G01*
X124035000Y-98870000D01*
G75*
G02*
X123910000Y-98995000I-125000J0D01*
G01*
X122735000Y-98995000D01*
G75*
G02*
X122610000Y-98870000I0J125000D01*
G01*
G37*
G36*
G01*
X124885000Y-98870000D02*
X124885000Y-98620000D01*
G75*
G02*
X125010000Y-98495000I125000J0D01*
G01*
X126185000Y-98495000D01*
G75*
G02*
X126310000Y-98620000I0J-125000D01*
G01*
X126310000Y-98870000D01*
G75*
G02*
X126185000Y-98995000I-125000J0D01*
G01*
X125010000Y-98995000D01*
G75*
G02*
X124885000Y-98870000I0J125000D01*
G01*
G37*
G36*
G01*
X124885000Y-100770000D02*
X124885000Y-100520000D01*
G75*
G02*
X125010000Y-100395000I125000J0D01*
G01*
X126185000Y-100395000D01*
G75*
G02*
X126310000Y-100520000I0J-125000D01*
G01*
X126310000Y-100770000D01*
G75*
G02*
X126185000Y-100895000I-125000J0D01*
G01*
X125010000Y-100895000D01*
G75*
G02*
X124885000Y-100770000I0J125000D01*
G01*
G37*
%TD*%
D16*
%TO.C,SW1*%
X151130000Y-99695000D03*
D17*
X151130000Y-97155000D03*
%TD*%
D18*
%TO.C,D11*%
X129139000Y-107442000D03*
X126639000Y-107442000D03*
%TD*%
%TO.C,D9*%
X125202000Y-119380000D03*
X122702000Y-119380000D03*
%TD*%
%TO.C,D4*%
X144145000Y-148347000D03*
X144145000Y-150847000D03*
%TD*%
%TO.C,D1*%
X131699000Y-104532000D03*
X131699000Y-107032000D03*
%TD*%
D16*
%TO.C,JP1*%
X146685000Y-142240000D03*
D17*
X146685000Y-139700000D03*
%TD*%
D19*
%TO.C,H5*%
X154074726Y-62333274D03*
X152908000Y-61850000D03*
X151741274Y-62333274D03*
X151258000Y-63500000D03*
X151741274Y-64666726D03*
X152908000Y-65150000D03*
X154074726Y-64666726D03*
X154558000Y-63500000D03*
D20*
X152908000Y-63500000D03*
%TD*%
D19*
%TO.C,H4*%
X127150726Y-154281274D03*
X125984000Y-153798000D03*
X124817274Y-154281274D03*
X124334000Y-155448000D03*
X124817274Y-156614726D03*
X125984000Y-157098000D03*
X127150726Y-156614726D03*
X127634000Y-155448000D03*
D20*
X125984000Y-155448000D03*
%TD*%
D19*
%TO.C,H2*%
X127150726Y-62333274D03*
X125984000Y-61850000D03*
X124817274Y-62333274D03*
X124334000Y-63500000D03*
X124817274Y-64666726D03*
X125984000Y-65150000D03*
X127150726Y-64666726D03*
X127634000Y-63500000D03*
D20*
X125984000Y-63500000D03*
%TD*%
D19*
%TO.C,H1*%
X154074726Y-154281274D03*
X152908000Y-153798000D03*
X151741274Y-154281274D03*
X151258000Y-155448000D03*
X151741274Y-156614726D03*
X152908000Y-157098000D03*
X154074726Y-156614726D03*
X154558000Y-155448000D03*
D20*
X152908000Y-155448000D03*
%TD*%
D21*
%TO.C,Q1*%
X130937000Y-143367000D03*
X131887000Y-141367000D03*
X129987000Y-141367000D03*
%TD*%
D22*
%TO.C,BZ1*%
X132190500Y-144780000D03*
X127190500Y-144780000D03*
%TD*%
D16*
%TO.C,J1*%
X127635000Y-114427000D03*
X125095000Y-114427000D03*
X127635000Y-111887000D03*
X125095000Y-111887000D03*
X127635000Y-109347000D03*
D17*
X125095000Y-109347000D03*
%TD*%
%TO.C,C9*%
G36*
G01*
X123226500Y-104935000D02*
X123226500Y-105885000D01*
G75*
G02*
X122976500Y-106135000I-250000J0D01*
G01*
X122301500Y-106135000D01*
G75*
G02*
X122051500Y-105885000I0J250000D01*
G01*
X122051500Y-104935000D01*
G75*
G02*
X122301500Y-104685000I250000J0D01*
G01*
X122976500Y-104685000D01*
G75*
G02*
X123226500Y-104935000I0J-250000D01*
G01*
G37*
G36*
G01*
X125301500Y-104935000D02*
X125301500Y-105885000D01*
G75*
G02*
X125051500Y-106135000I-250000J0D01*
G01*
X124376500Y-106135000D01*
G75*
G02*
X124126500Y-105885000I0J250000D01*
G01*
X124126500Y-104935000D01*
G75*
G02*
X124376500Y-104685000I250000J0D01*
G01*
X125051500Y-104685000D01*
G75*
G02*
X125301500Y-104935000I0J-250000D01*
G01*
G37*
%TD*%
%TO.C,J2*%
G36*
G01*
X127090000Y-132549000D02*
X125640000Y-132549000D01*
G75*
G02*
X125390000Y-132299000I0J250000D01*
G01*
X125390000Y-131099000D01*
G75*
G02*
X125640000Y-130849000I250000J0D01*
G01*
X127090000Y-130849000D01*
G75*
G02*
X127340000Y-131099000I0J-250000D01*
G01*
X127340000Y-132299000D01*
G75*
G02*
X127090000Y-132549000I-250000J0D01*
G01*
G37*
D23*
X126365000Y-129199000D03*
X126365000Y-126699000D03*
X126365000Y-124199000D03*
%TD*%
D24*
%TO.C,U1*%
X154940000Y-151130000D03*
X154940000Y-148590000D03*
X154940000Y-146050000D03*
X154940000Y-143510000D03*
X154940000Y-140970000D03*
X154940000Y-138430000D03*
X154940000Y-135890000D03*
X154940000Y-133350000D03*
X154940000Y-130810000D03*
X154940000Y-128270000D03*
X154940000Y-125730000D03*
X154940000Y-123190000D03*
X154940000Y-120650000D03*
X142240000Y-148590000D03*
X139700000Y-151130000D03*
X139700000Y-148590000D03*
X139700000Y-146050000D03*
X139700000Y-143510000D03*
X139700000Y-140970000D03*
X139700000Y-138430000D03*
X139700000Y-135890000D03*
X139700000Y-133350000D03*
X139700000Y-130810000D03*
X139700000Y-128270000D03*
X139700000Y-125730000D03*
X139700000Y-123190000D03*
X139700000Y-120650000D03*
X154940000Y-118110000D03*
X152400000Y-118110000D03*
X149860000Y-118110000D03*
X139700000Y-118110000D03*
X142240000Y-118110000D03*
X144780000Y-118110000D03*
X147320000Y-118110000D03*
%TD*%
%TO.C,C1*%
G36*
G01*
X145956000Y-150056000D02*
X146906000Y-150056000D01*
G75*
G02*
X147156000Y-150306000I0J-250000D01*
G01*
X147156000Y-150981000D01*
G75*
G02*
X146906000Y-151231000I-250000J0D01*
G01*
X145956000Y-151231000D01*
G75*
G02*
X145706000Y-150981000I0J250000D01*
G01*
X145706000Y-150306000D01*
G75*
G02*
X145956000Y-150056000I250000J0D01*
G01*
G37*
G36*
G01*
X145956000Y-147981000D02*
X146906000Y-147981000D01*
G75*
G02*
X147156000Y-148231000I0J-250000D01*
G01*
X147156000Y-148906000D01*
G75*
G02*
X146906000Y-149156000I-250000J0D01*
G01*
X145956000Y-149156000D01*
G75*
G02*
X145706000Y-148906000I0J250000D01*
G01*
X145706000Y-148231000D01*
G75*
G02*
X145956000Y-147981000I250000J0D01*
G01*
G37*
%TD*%
%TO.C,U16*%
G36*
G01*
X132738000Y-84796000D02*
X132438000Y-84796000D01*
G75*
G02*
X132288000Y-84646000I0J150000D01*
G01*
X132288000Y-82896000D01*
G75*
G02*
X132438000Y-82746000I150000J0D01*
G01*
X132738000Y-82746000D01*
G75*
G02*
X132888000Y-82896000I0J-150000D01*
G01*
X132888000Y-84646000D01*
G75*
G02*
X132738000Y-84796000I-150000J0D01*
G01*
G37*
G36*
G01*
X131468000Y-84796000D02*
X131168000Y-84796000D01*
G75*
G02*
X131018000Y-84646000I0J150000D01*
G01*
X131018000Y-82896000D01*
G75*
G02*
X131168000Y-82746000I150000J0D01*
G01*
X131468000Y-82746000D01*
G75*
G02*
X131618000Y-82896000I0J-150000D01*
G01*
X131618000Y-84646000D01*
G75*
G02*
X131468000Y-84796000I-150000J0D01*
G01*
G37*
G36*
G01*
X130198000Y-84796000D02*
X129898000Y-84796000D01*
G75*
G02*
X129748000Y-84646000I0J150000D01*
G01*
X129748000Y-82896000D01*
G75*
G02*
X129898000Y-82746000I150000J0D01*
G01*
X130198000Y-82746000D01*
G75*
G02*
X130348000Y-82896000I0J-150000D01*
G01*
X130348000Y-84646000D01*
G75*
G02*
X130198000Y-84796000I-150000J0D01*
G01*
G37*
G36*
G01*
X128928000Y-84796000D02*
X128628000Y-84796000D01*
G75*
G02*
X128478000Y-84646000I0J150000D01*
G01*
X128478000Y-82896000D01*
G75*
G02*
X128628000Y-82746000I150000J0D01*
G01*
X128928000Y-82746000D01*
G75*
G02*
X129078000Y-82896000I0J-150000D01*
G01*
X129078000Y-84646000D01*
G75*
G02*
X128928000Y-84796000I-150000J0D01*
G01*
G37*
G36*
G01*
X127658000Y-84796000D02*
X127358000Y-84796000D01*
G75*
G02*
X127208000Y-84646000I0J150000D01*
G01*
X127208000Y-82896000D01*
G75*
G02*
X127358000Y-82746000I150000J0D01*
G01*
X127658000Y-82746000D01*
G75*
G02*
X127808000Y-82896000I0J-150000D01*
G01*
X127808000Y-84646000D01*
G75*
G02*
X127658000Y-84796000I-150000J0D01*
G01*
G37*
G36*
G01*
X126388000Y-84796000D02*
X126088000Y-84796000D01*
G75*
G02*
X125938000Y-84646000I0J150000D01*
G01*
X125938000Y-82896000D01*
G75*
G02*
X126088000Y-82746000I150000J0D01*
G01*
X126388000Y-82746000D01*
G75*
G02*
X126538000Y-82896000I0J-150000D01*
G01*
X126538000Y-84646000D01*
G75*
G02*
X126388000Y-84796000I-150000J0D01*
G01*
G37*
G36*
G01*
X125118000Y-84796000D02*
X124818000Y-84796000D01*
G75*
G02*
X124668000Y-84646000I0J150000D01*
G01*
X124668000Y-82896000D01*
G75*
G02*
X124818000Y-82746000I150000J0D01*
G01*
X125118000Y-82746000D01*
G75*
G02*
X125268000Y-82896000I0J-150000D01*
G01*
X125268000Y-84646000D01*
G75*
G02*
X125118000Y-84796000I-150000J0D01*
G01*
G37*
G36*
G01*
X123848000Y-84796000D02*
X123548000Y-84796000D01*
G75*
G02*
X123398000Y-84646000I0J150000D01*
G01*
X123398000Y-82896000D01*
G75*
G02*
X123548000Y-82746000I150000J0D01*
G01*
X123848000Y-82746000D01*
G75*
G02*
X123998000Y-82896000I0J-150000D01*
G01*
X123998000Y-84646000D01*
G75*
G02*
X123848000Y-84796000I-150000J0D01*
G01*
G37*
G36*
G01*
X123848000Y-75496000D02*
X123548000Y-75496000D01*
G75*
G02*
X123398000Y-75346000I0J150000D01*
G01*
X123398000Y-73596000D01*
G75*
G02*
X123548000Y-73446000I150000J0D01*
G01*
X123848000Y-73446000D01*
G75*
G02*
X123998000Y-73596000I0J-150000D01*
G01*
X123998000Y-75346000D01*
G75*
G02*
X123848000Y-75496000I-150000J0D01*
G01*
G37*
G36*
G01*
X125118000Y-75496000D02*
X124818000Y-75496000D01*
G75*
G02*
X124668000Y-75346000I0J150000D01*
G01*
X124668000Y-73596000D01*
G75*
G02*
X124818000Y-73446000I150000J0D01*
G01*
X125118000Y-73446000D01*
G75*
G02*
X125268000Y-73596000I0J-150000D01*
G01*
X125268000Y-75346000D01*
G75*
G02*
X125118000Y-75496000I-150000J0D01*
G01*
G37*
G36*
G01*
X126388000Y-75496000D02*
X126088000Y-75496000D01*
G75*
G02*
X125938000Y-75346000I0J150000D01*
G01*
X125938000Y-73596000D01*
G75*
G02*
X126088000Y-73446000I150000J0D01*
G01*
X126388000Y-73446000D01*
G75*
G02*
X126538000Y-73596000I0J-150000D01*
G01*
X126538000Y-75346000D01*
G75*
G02*
X126388000Y-75496000I-150000J0D01*
G01*
G37*
G36*
G01*
X127658000Y-75496000D02*
X127358000Y-75496000D01*
G75*
G02*
X127208000Y-75346000I0J150000D01*
G01*
X127208000Y-73596000D01*
G75*
G02*
X127358000Y-73446000I150000J0D01*
G01*
X127658000Y-73446000D01*
G75*
G02*
X127808000Y-73596000I0J-150000D01*
G01*
X127808000Y-75346000D01*
G75*
G02*
X127658000Y-75496000I-150000J0D01*
G01*
G37*
G36*
G01*
X128928000Y-75496000D02*
X128628000Y-75496000D01*
G75*
G02*
X128478000Y-75346000I0J150000D01*
G01*
X128478000Y-73596000D01*
G75*
G02*
X128628000Y-73446000I150000J0D01*
G01*
X128928000Y-73446000D01*
G75*
G02*
X129078000Y-73596000I0J-150000D01*
G01*
X129078000Y-75346000D01*
G75*
G02*
X128928000Y-75496000I-150000J0D01*
G01*
G37*
G36*
G01*
X130198000Y-75496000D02*
X129898000Y-75496000D01*
G75*
G02*
X129748000Y-75346000I0J150000D01*
G01*
X129748000Y-73596000D01*
G75*
G02*
X129898000Y-73446000I150000J0D01*
G01*
X130198000Y-73446000D01*
G75*
G02*
X130348000Y-73596000I0J-150000D01*
G01*
X130348000Y-75346000D01*
G75*
G02*
X130198000Y-75496000I-150000J0D01*
G01*
G37*
G36*
G01*
X131468000Y-75496000D02*
X131168000Y-75496000D01*
G75*
G02*
X131018000Y-75346000I0J150000D01*
G01*
X131018000Y-73596000D01*
G75*
G02*
X131168000Y-73446000I150000J0D01*
G01*
X131468000Y-73446000D01*
G75*
G02*
X131618000Y-73596000I0J-150000D01*
G01*
X131618000Y-75346000D01*
G75*
G02*
X131468000Y-75496000I-150000J0D01*
G01*
G37*
G36*
G01*
X132738000Y-75496000D02*
X132438000Y-75496000D01*
G75*
G02*
X132288000Y-75346000I0J150000D01*
G01*
X132288000Y-73596000D01*
G75*
G02*
X132438000Y-73446000I150000J0D01*
G01*
X132738000Y-73446000D01*
G75*
G02*
X132888000Y-73596000I0J-150000D01*
G01*
X132888000Y-75346000D01*
G75*
G02*
X132738000Y-75496000I-150000J0D01*
G01*
G37*
%TD*%
%TO.C,U4*%
G36*
G01*
X152677000Y-151532000D02*
X152377000Y-151532000D01*
G75*
G02*
X152227000Y-151382000I0J150000D01*
G01*
X152227000Y-149732000D01*
G75*
G02*
X152377000Y-149582000I150000J0D01*
G01*
X152677000Y-149582000D01*
G75*
G02*
X152827000Y-149732000I0J-150000D01*
G01*
X152827000Y-151382000D01*
G75*
G02*
X152677000Y-151532000I-150000J0D01*
G01*
G37*
G36*
G01*
X151407000Y-151532000D02*
X151107000Y-151532000D01*
G75*
G02*
X150957000Y-151382000I0J150000D01*
G01*
X150957000Y-149732000D01*
G75*
G02*
X151107000Y-149582000I150000J0D01*
G01*
X151407000Y-149582000D01*
G75*
G02*
X151557000Y-149732000I0J-150000D01*
G01*
X151557000Y-151382000D01*
G75*
G02*
X151407000Y-151532000I-150000J0D01*
G01*
G37*
G36*
G01*
X150137000Y-151532000D02*
X149837000Y-151532000D01*
G75*
G02*
X149687000Y-151382000I0J150000D01*
G01*
X149687000Y-149732000D01*
G75*
G02*
X149837000Y-149582000I150000J0D01*
G01*
X150137000Y-149582000D01*
G75*
G02*
X150287000Y-149732000I0J-150000D01*
G01*
X150287000Y-151382000D01*
G75*
G02*
X150137000Y-151532000I-150000J0D01*
G01*
G37*
G36*
G01*
X148867000Y-151532000D02*
X148567000Y-151532000D01*
G75*
G02*
X148417000Y-151382000I0J150000D01*
G01*
X148417000Y-149732000D01*
G75*
G02*
X148567000Y-149582000I150000J0D01*
G01*
X148867000Y-149582000D01*
G75*
G02*
X149017000Y-149732000I0J-150000D01*
G01*
X149017000Y-151382000D01*
G75*
G02*
X148867000Y-151532000I-150000J0D01*
G01*
G37*
G36*
G01*
X148867000Y-146582000D02*
X148567000Y-146582000D01*
G75*
G02*
X148417000Y-146432000I0J150000D01*
G01*
X148417000Y-144782000D01*
G75*
G02*
X148567000Y-144632000I150000J0D01*
G01*
X148867000Y-144632000D01*
G75*
G02*
X149017000Y-144782000I0J-150000D01*
G01*
X149017000Y-146432000D01*
G75*
G02*
X148867000Y-146582000I-150000J0D01*
G01*
G37*
G36*
G01*
X150137000Y-146582000D02*
X149837000Y-146582000D01*
G75*
G02*
X149687000Y-146432000I0J150000D01*
G01*
X149687000Y-144782000D01*
G75*
G02*
X149837000Y-144632000I150000J0D01*
G01*
X150137000Y-144632000D01*
G75*
G02*
X150287000Y-144782000I0J-150000D01*
G01*
X150287000Y-146432000D01*
G75*
G02*
X150137000Y-146582000I-150000J0D01*
G01*
G37*
G36*
G01*
X151407000Y-146582000D02*
X151107000Y-146582000D01*
G75*
G02*
X150957000Y-146432000I0J150000D01*
G01*
X150957000Y-144782000D01*
G75*
G02*
X151107000Y-144632000I150000J0D01*
G01*
X151407000Y-144632000D01*
G75*
G02*
X151557000Y-144782000I0J-150000D01*
G01*
X151557000Y-146432000D01*
G75*
G02*
X151407000Y-146582000I-150000J0D01*
G01*
G37*
G36*
G01*
X152677000Y-146582000D02*
X152377000Y-146582000D01*
G75*
G02*
X152227000Y-146432000I0J150000D01*
G01*
X152227000Y-144782000D01*
G75*
G02*
X152377000Y-144632000I150000J0D01*
G01*
X152677000Y-144632000D01*
G75*
G02*
X152827000Y-144782000I0J-150000D01*
G01*
X152827000Y-146432000D01*
G75*
G02*
X152677000Y-146582000I-150000J0D01*
G01*
G37*
%TD*%
%TO.C,R13*%
G36*
G01*
X149984000Y-138233999D02*
X149984000Y-139134001D01*
G75*
G02*
X149734001Y-139384000I-249999J0D01*
G01*
X149033999Y-139384000D01*
G75*
G02*
X148784000Y-139134001I0J249999D01*
G01*
X148784000Y-138233999D01*
G75*
G02*
X149033999Y-137984000I249999J0D01*
G01*
X149734001Y-137984000D01*
G75*
G02*
X149984000Y-138233999I0J-249999D01*
G01*
G37*
G36*
G01*
X151984000Y-138233999D02*
X151984000Y-139134001D01*
G75*
G02*
X151734001Y-139384000I-249999J0D01*
G01*
X151033999Y-139384000D01*
G75*
G02*
X150784000Y-139134001I0J249999D01*
G01*
X150784000Y-138233999D01*
G75*
G02*
X151033999Y-137984000I249999J0D01*
G01*
X151734001Y-137984000D01*
G75*
G02*
X151984000Y-138233999I0J-249999D01*
G01*
G37*
%TD*%
D25*
%TO.C,U14*%
X140025000Y-71800000D03*
X140025000Y-71150000D03*
X140025000Y-70500000D03*
X140030000Y-69850000D03*
X140025000Y-69200000D03*
X140025000Y-68550000D03*
X140025000Y-67900000D03*
X145725000Y-67900000D03*
X145725000Y-68550000D03*
X145725000Y-69200000D03*
X145725000Y-69850000D03*
X145725000Y-70500000D03*
X145725000Y-71150000D03*
X145725000Y-71800000D03*
D26*
X142875000Y-69850000D03*
D27*
X142036800Y-71374000D03*
X143713200Y-71374000D03*
X142875000Y-71374000D03*
X142036800Y-69951600D03*
X142875000Y-69951600D03*
X143713200Y-69951600D03*
X142036800Y-68478400D03*
X142875000Y-68478400D03*
X143713200Y-68478400D03*
%TD*%
D25*
%TO.C,U13*%
X140025000Y-79420000D03*
X140025000Y-78770000D03*
X140025000Y-78120000D03*
X140030000Y-77470000D03*
X140025000Y-76820000D03*
X140025000Y-76170000D03*
X140025000Y-75520000D03*
X145725000Y-75520000D03*
X145725000Y-76170000D03*
X145725000Y-76820000D03*
X145725000Y-77470000D03*
X145725000Y-78120000D03*
X145725000Y-78770000D03*
X145725000Y-79420000D03*
D26*
X142875000Y-77470000D03*
D27*
X142036800Y-78994000D03*
X143713200Y-78994000D03*
X142875000Y-78994000D03*
X142036800Y-77571600D03*
X142875000Y-77571600D03*
X143713200Y-77571600D03*
X142036800Y-76098400D03*
X142875000Y-76098400D03*
X143713200Y-76098400D03*
%TD*%
D25*
%TO.C,U12*%
X140025000Y-85135000D03*
X140025000Y-84485000D03*
X140025000Y-83835000D03*
X140030000Y-83185000D03*
X140025000Y-82535000D03*
X140025000Y-81885000D03*
X140025000Y-81235000D03*
X145725000Y-81235000D03*
X145725000Y-81885000D03*
X145725000Y-82535000D03*
X145725000Y-83185000D03*
X145725000Y-83835000D03*
X145725000Y-84485000D03*
X145725000Y-85135000D03*
D26*
X142875000Y-83185000D03*
D27*
X142036800Y-84709000D03*
X143713200Y-84709000D03*
X142875000Y-84709000D03*
X142036800Y-83286600D03*
X142875000Y-83286600D03*
X143713200Y-83286600D03*
X142036800Y-81813400D03*
X142875000Y-81813400D03*
X143713200Y-81813400D03*
%TD*%
D25*
%TO.C,U11*%
X140025000Y-92755000D03*
X140025000Y-92105000D03*
X140025000Y-91455000D03*
X140030000Y-90805000D03*
X140025000Y-90155000D03*
X140025000Y-89505000D03*
X140025000Y-88855000D03*
X145725000Y-88855000D03*
X145725000Y-89505000D03*
X145725000Y-90155000D03*
X145725000Y-90805000D03*
X145725000Y-91455000D03*
X145725000Y-92105000D03*
X145725000Y-92755000D03*
D26*
X142875000Y-90805000D03*
D27*
X142036800Y-92329000D03*
X143713200Y-92329000D03*
X142875000Y-92329000D03*
X142036800Y-90906600D03*
X142875000Y-90906600D03*
X143713200Y-90906600D03*
X142036800Y-89433400D03*
X142875000Y-89433400D03*
X143713200Y-89433400D03*
%TD*%
%TO.C,R10*%
G36*
G01*
X148901999Y-133004000D02*
X149802001Y-133004000D01*
G75*
G02*
X150052000Y-133253999I0J-249999D01*
G01*
X150052000Y-133954001D01*
G75*
G02*
X149802001Y-134204000I-249999J0D01*
G01*
X148901999Y-134204000D01*
G75*
G02*
X148652000Y-133954001I0J249999D01*
G01*
X148652000Y-133253999D01*
G75*
G02*
X148901999Y-133004000I249999J0D01*
G01*
G37*
G36*
G01*
X148901999Y-131004000D02*
X149802001Y-131004000D01*
G75*
G02*
X150052000Y-131253999I0J-249999D01*
G01*
X150052000Y-131954001D01*
G75*
G02*
X149802001Y-132204000I-249999J0D01*
G01*
X148901999Y-132204000D01*
G75*
G02*
X148652000Y-131954001I0J249999D01*
G01*
X148652000Y-131253999D01*
G75*
G02*
X148901999Y-131004000I249999J0D01*
G01*
G37*
%TD*%
%TO.C,R9*%
G36*
G01*
X127958001Y-139173000D02*
X127057999Y-139173000D01*
G75*
G02*
X126808000Y-138923001I0J249999D01*
G01*
X126808000Y-138222999D01*
G75*
G02*
X127057999Y-137973000I249999J0D01*
G01*
X127958001Y-137973000D01*
G75*
G02*
X128208000Y-138222999I0J-249999D01*
G01*
X128208000Y-138923001D01*
G75*
G02*
X127958001Y-139173000I-249999J0D01*
G01*
G37*
G36*
G01*
X127958001Y-141173000D02*
X127057999Y-141173000D01*
G75*
G02*
X126808000Y-140923001I0J249999D01*
G01*
X126808000Y-140222999D01*
G75*
G02*
X127057999Y-139973000I249999J0D01*
G01*
X127958001Y-139973000D01*
G75*
G02*
X128208000Y-140222999I0J-249999D01*
G01*
X128208000Y-140923001D01*
G75*
G02*
X127958001Y-141173000I-249999J0D01*
G01*
G37*
%TD*%
%TO.C,R8*%
G36*
G01*
X134004000Y-88842001D02*
X134004000Y-87941999D01*
G75*
G02*
X134253999Y-87692000I249999J0D01*
G01*
X134954001Y-87692000D01*
G75*
G02*
X135204000Y-87941999I0J-249999D01*
G01*
X135204000Y-88842001D01*
G75*
G02*
X134954001Y-89092000I-249999J0D01*
G01*
X134253999Y-89092000D01*
G75*
G02*
X134004000Y-88842001I0J249999D01*
G01*
G37*
G36*
G01*
X132004000Y-88842001D02*
X132004000Y-87941999D01*
G75*
G02*
X132253999Y-87692000I249999J0D01*
G01*
X132954001Y-87692000D01*
G75*
G02*
X133204000Y-87941999I0J-249999D01*
G01*
X133204000Y-88842001D01*
G75*
G02*
X132954001Y-89092000I-249999J0D01*
G01*
X132253999Y-89092000D01*
G75*
G02*
X132004000Y-88842001I0J249999D01*
G01*
G37*
%TD*%
%TO.C,R6*%
G36*
G01*
X131514001Y-136744000D02*
X130613999Y-136744000D01*
G75*
G02*
X130364000Y-136494001I0J249999D01*
G01*
X130364000Y-135793999D01*
G75*
G02*
X130613999Y-135544000I249999J0D01*
G01*
X131514001Y-135544000D01*
G75*
G02*
X131764000Y-135793999I0J-249999D01*
G01*
X131764000Y-136494001D01*
G75*
G02*
X131514001Y-136744000I-249999J0D01*
G01*
G37*
G36*
G01*
X131514001Y-138744000D02*
X130613999Y-138744000D01*
G75*
G02*
X130364000Y-138494001I0J249999D01*
G01*
X130364000Y-137793999D01*
G75*
G02*
X130613999Y-137544000I249999J0D01*
G01*
X131514001Y-137544000D01*
G75*
G02*
X131764000Y-137793999I0J-249999D01*
G01*
X131764000Y-138494001D01*
G75*
G02*
X131514001Y-138744000I-249999J0D01*
G01*
G37*
%TD*%
%TO.C,R5*%
G36*
G01*
X125545001Y-87611000D02*
X124644999Y-87611000D01*
G75*
G02*
X124395000Y-87361001I0J249999D01*
G01*
X124395000Y-86660999D01*
G75*
G02*
X124644999Y-86411000I249999J0D01*
G01*
X125545001Y-86411000D01*
G75*
G02*
X125795000Y-86660999I0J-249999D01*
G01*
X125795000Y-87361001D01*
G75*
G02*
X125545001Y-87611000I-249999J0D01*
G01*
G37*
G36*
G01*
X125545001Y-89611000D02*
X124644999Y-89611000D01*
G75*
G02*
X124395000Y-89361001I0J249999D01*
G01*
X124395000Y-88660999D01*
G75*
G02*
X124644999Y-88411000I249999J0D01*
G01*
X125545001Y-88411000D01*
G75*
G02*
X125795000Y-88660999I0J-249999D01*
G01*
X125795000Y-89361001D01*
G75*
G02*
X125545001Y-89611000I-249999J0D01*
G01*
G37*
%TD*%
%TO.C,R4*%
G36*
G01*
X131045000Y-127946999D02*
X131045000Y-128847001D01*
G75*
G02*
X130795001Y-129097000I-249999J0D01*
G01*
X130094999Y-129097000D01*
G75*
G02*
X129845000Y-128847001I0J249999D01*
G01*
X129845000Y-127946999D01*
G75*
G02*
X130094999Y-127697000I249999J0D01*
G01*
X130795001Y-127697000D01*
G75*
G02*
X131045000Y-127946999I0J-249999D01*
G01*
G37*
G36*
G01*
X133045000Y-127946999D02*
X133045000Y-128847001D01*
G75*
G02*
X132795001Y-129097000I-249999J0D01*
G01*
X132094999Y-129097000D01*
G75*
G02*
X131845000Y-128847001I0J249999D01*
G01*
X131845000Y-127946999D01*
G75*
G02*
X132094999Y-127697000I249999J0D01*
G01*
X132795001Y-127697000D01*
G75*
G02*
X133045000Y-127946999I0J-249999D01*
G01*
G37*
%TD*%
%TO.C,R3*%
G36*
G01*
X131045000Y-125406999D02*
X131045000Y-126307001D01*
G75*
G02*
X130795001Y-126557000I-249999J0D01*
G01*
X130094999Y-126557000D01*
G75*
G02*
X129845000Y-126307001I0J249999D01*
G01*
X129845000Y-125406999D01*
G75*
G02*
X130094999Y-125157000I249999J0D01*
G01*
X130795001Y-125157000D01*
G75*
G02*
X131045000Y-125406999I0J-249999D01*
G01*
G37*
G36*
G01*
X133045000Y-125406999D02*
X133045000Y-126307001D01*
G75*
G02*
X132795001Y-126557000I-249999J0D01*
G01*
X132094999Y-126557000D01*
G75*
G02*
X131845000Y-126307001I0J249999D01*
G01*
X131845000Y-125406999D01*
G75*
G02*
X132094999Y-125157000I249999J0D01*
G01*
X132795001Y-125157000D01*
G75*
G02*
X133045000Y-125406999I0J-249999D01*
G01*
G37*
%TD*%
%TO.C,R2*%
G36*
G01*
X143313999Y-132988000D02*
X144214001Y-132988000D01*
G75*
G02*
X144464000Y-133237999I0J-249999D01*
G01*
X144464000Y-133938001D01*
G75*
G02*
X144214001Y-134188000I-249999J0D01*
G01*
X143313999Y-134188000D01*
G75*
G02*
X143064000Y-133938001I0J249999D01*
G01*
X143064000Y-133237999D01*
G75*
G02*
X143313999Y-132988000I249999J0D01*
G01*
G37*
G36*
G01*
X143313999Y-130988000D02*
X144214001Y-130988000D01*
G75*
G02*
X144464000Y-131237999I0J-249999D01*
G01*
X144464000Y-131938001D01*
G75*
G02*
X144214001Y-132188000I-249999J0D01*
G01*
X143313999Y-132188000D01*
G75*
G02*
X143064000Y-131938001I0J249999D01*
G01*
X143064000Y-131237999D01*
G75*
G02*
X143313999Y-130988000I249999J0D01*
G01*
G37*
%TD*%
%TO.C,R1*%
G36*
G01*
X142983000Y-128962999D02*
X142983000Y-129863001D01*
G75*
G02*
X142733001Y-130113000I-249999J0D01*
G01*
X142032999Y-130113000D01*
G75*
G02*
X141783000Y-129863001I0J249999D01*
G01*
X141783000Y-128962999D01*
G75*
G02*
X142032999Y-128713000I249999J0D01*
G01*
X142733001Y-128713000D01*
G75*
G02*
X142983000Y-128962999I0J-249999D01*
G01*
G37*
G36*
G01*
X144983000Y-128962999D02*
X144983000Y-129863001D01*
G75*
G02*
X144733001Y-130113000I-249999J0D01*
G01*
X144032999Y-130113000D01*
G75*
G02*
X143783000Y-129863001I0J249999D01*
G01*
X143783000Y-128962999D01*
G75*
G02*
X144032999Y-128713000I249999J0D01*
G01*
X144733001Y-128713000D01*
G75*
G02*
X144983000Y-128962999I0J-249999D01*
G01*
G37*
%TD*%
%TO.C,D12*%
G36*
G01*
X149917999Y-71062000D02*
X150818001Y-71062000D01*
G75*
G02*
X151068000Y-71311999I0J-249999D01*
G01*
X151068000Y-71962001D01*
G75*
G02*
X150818001Y-72212000I-249999J0D01*
G01*
X149917999Y-72212000D01*
G75*
G02*
X149668000Y-71962001I0J249999D01*
G01*
X149668000Y-71311999D01*
G75*
G02*
X149917999Y-71062000I249999J0D01*
G01*
G37*
G36*
G01*
X149917999Y-69012000D02*
X150818001Y-69012000D01*
G75*
G02*
X151068000Y-69261999I0J-249999D01*
G01*
X151068000Y-69912001D01*
G75*
G02*
X150818001Y-70162000I-249999J0D01*
G01*
X149917999Y-70162000D01*
G75*
G02*
X149668000Y-69912001I0J249999D01*
G01*
X149668000Y-69261999D01*
G75*
G02*
X149917999Y-69012000I249999J0D01*
G01*
G37*
%TD*%
%TO.C,D10*%
G36*
G01*
X149917999Y-78165000D02*
X150818001Y-78165000D01*
G75*
G02*
X151068000Y-78414999I0J-249999D01*
G01*
X151068000Y-79065001D01*
G75*
G02*
X150818001Y-79315000I-249999J0D01*
G01*
X149917999Y-79315000D01*
G75*
G02*
X149668000Y-79065001I0J249999D01*
G01*
X149668000Y-78414999D01*
G75*
G02*
X149917999Y-78165000I249999J0D01*
G01*
G37*
G36*
G01*
X149917999Y-76115000D02*
X150818001Y-76115000D01*
G75*
G02*
X151068000Y-76364999I0J-249999D01*
G01*
X151068000Y-77015001D01*
G75*
G02*
X150818001Y-77265000I-249999J0D01*
G01*
X149917999Y-77265000D01*
G75*
G02*
X149668000Y-77015001I0J249999D01*
G01*
X149668000Y-76364999D01*
G75*
G02*
X149917999Y-76115000I249999J0D01*
G01*
G37*
%TD*%
%TO.C,D8*%
G36*
G01*
X149917999Y-84778000D02*
X150818001Y-84778000D01*
G75*
G02*
X151068000Y-85027999I0J-249999D01*
G01*
X151068000Y-85678001D01*
G75*
G02*
X150818001Y-85928000I-249999J0D01*
G01*
X149917999Y-85928000D01*
G75*
G02*
X149668000Y-85678001I0J249999D01*
G01*
X149668000Y-85027999D01*
G75*
G02*
X149917999Y-84778000I249999J0D01*
G01*
G37*
G36*
G01*
X149917999Y-82728000D02*
X150818001Y-82728000D01*
G75*
G02*
X151068000Y-82977999I0J-249999D01*
G01*
X151068000Y-83628001D01*
G75*
G02*
X150818001Y-83878000I-249999J0D01*
G01*
X149917999Y-83878000D01*
G75*
G02*
X149668000Y-83628001I0J249999D01*
G01*
X149668000Y-82977999D01*
G75*
G02*
X149917999Y-82728000I249999J0D01*
G01*
G37*
%TD*%
%TO.C,D6*%
G36*
G01*
X149917999Y-91890000D02*
X150818001Y-91890000D01*
G75*
G02*
X151068000Y-92139999I0J-249999D01*
G01*
X151068000Y-92790001D01*
G75*
G02*
X150818001Y-93040000I-249999J0D01*
G01*
X149917999Y-93040000D01*
G75*
G02*
X149668000Y-92790001I0J249999D01*
G01*
X149668000Y-92139999D01*
G75*
G02*
X149917999Y-91890000I249999J0D01*
G01*
G37*
G36*
G01*
X149917999Y-89840000D02*
X150818001Y-89840000D01*
G75*
G02*
X151068000Y-90089999I0J-249999D01*
G01*
X151068000Y-90740001D01*
G75*
G02*
X150818001Y-90990000I-249999J0D01*
G01*
X149917999Y-90990000D01*
G75*
G02*
X149668000Y-90740001I0J249999D01*
G01*
X149668000Y-90089999D01*
G75*
G02*
X149917999Y-89840000I249999J0D01*
G01*
G37*
%TD*%
%TO.C,C12*%
G36*
G01*
X144330000Y-73185000D02*
X144330000Y-74135000D01*
G75*
G02*
X144080000Y-74385000I-250000J0D01*
G01*
X143405000Y-74385000D01*
G75*
G02*
X143155000Y-74135000I0J250000D01*
G01*
X143155000Y-73185000D01*
G75*
G02*
X143405000Y-72935000I250000J0D01*
G01*
X144080000Y-72935000D01*
G75*
G02*
X144330000Y-73185000I0J-250000D01*
G01*
G37*
G36*
G01*
X146405000Y-73185000D02*
X146405000Y-74135000D01*
G75*
G02*
X146155000Y-74385000I-250000J0D01*
G01*
X145480000Y-74385000D01*
G75*
G02*
X145230000Y-74135000I0J250000D01*
G01*
X145230000Y-73185000D01*
G75*
G02*
X145480000Y-72935000I250000J0D01*
G01*
X146155000Y-72935000D01*
G75*
G02*
X146405000Y-73185000I0J-250000D01*
G01*
G37*
%TD*%
%TO.C,C10*%
G36*
G01*
X144330000Y-86520000D02*
X144330000Y-87470000D01*
G75*
G02*
X144080000Y-87720000I-250000J0D01*
G01*
X143405000Y-87720000D01*
G75*
G02*
X143155000Y-87470000I0J250000D01*
G01*
X143155000Y-86520000D01*
G75*
G02*
X143405000Y-86270000I250000J0D01*
G01*
X144080000Y-86270000D01*
G75*
G02*
X144330000Y-86520000I0J-250000D01*
G01*
G37*
G36*
G01*
X146405000Y-86520000D02*
X146405000Y-87470000D01*
G75*
G02*
X146155000Y-87720000I-250000J0D01*
G01*
X145480000Y-87720000D01*
G75*
G02*
X145230000Y-87470000I0J250000D01*
G01*
X145230000Y-86520000D01*
G75*
G02*
X145480000Y-86270000I250000J0D01*
G01*
X146155000Y-86270000D01*
G75*
G02*
X146405000Y-86520000I0J-250000D01*
G01*
G37*
%TD*%
%TO.C,C8*%
G36*
G01*
X148303000Y-70183500D02*
X147353000Y-70183500D01*
G75*
G02*
X147103000Y-69933500I0J250000D01*
G01*
X147103000Y-69258500D01*
G75*
G02*
X147353000Y-69008500I250000J0D01*
G01*
X148303000Y-69008500D01*
G75*
G02*
X148553000Y-69258500I0J-250000D01*
G01*
X148553000Y-69933500D01*
G75*
G02*
X148303000Y-70183500I-250000J0D01*
G01*
G37*
G36*
G01*
X148303000Y-72258500D02*
X147353000Y-72258500D01*
G75*
G02*
X147103000Y-72008500I0J250000D01*
G01*
X147103000Y-71333500D01*
G75*
G02*
X147353000Y-71083500I250000J0D01*
G01*
X148303000Y-71083500D01*
G75*
G02*
X148553000Y-71333500I0J-250000D01*
G01*
X148553000Y-72008500D01*
G75*
G02*
X148303000Y-72258500I-250000J0D01*
G01*
G37*
%TD*%
%TO.C,C7*%
G36*
G01*
X148303000Y-77252500D02*
X147353000Y-77252500D01*
G75*
G02*
X147103000Y-77002500I0J250000D01*
G01*
X147103000Y-76327500D01*
G75*
G02*
X147353000Y-76077500I250000J0D01*
G01*
X148303000Y-76077500D01*
G75*
G02*
X148553000Y-76327500I0J-250000D01*
G01*
X148553000Y-77002500D01*
G75*
G02*
X148303000Y-77252500I-250000J0D01*
G01*
G37*
G36*
G01*
X148303000Y-79327500D02*
X147353000Y-79327500D01*
G75*
G02*
X147103000Y-79077500I0J250000D01*
G01*
X147103000Y-78402500D01*
G75*
G02*
X147353000Y-78152500I250000J0D01*
G01*
X148303000Y-78152500D01*
G75*
G02*
X148553000Y-78402500I0J-250000D01*
G01*
X148553000Y-79077500D01*
G75*
G02*
X148303000Y-79327500I-250000J0D01*
G01*
G37*
%TD*%
%TO.C,C6*%
G36*
G01*
X148303000Y-83878000D02*
X147353000Y-83878000D01*
G75*
G02*
X147103000Y-83628000I0J250000D01*
G01*
X147103000Y-82953000D01*
G75*
G02*
X147353000Y-82703000I250000J0D01*
G01*
X148303000Y-82703000D01*
G75*
G02*
X148553000Y-82953000I0J-250000D01*
G01*
X148553000Y-83628000D01*
G75*
G02*
X148303000Y-83878000I-250000J0D01*
G01*
G37*
G36*
G01*
X148303000Y-85953000D02*
X147353000Y-85953000D01*
G75*
G02*
X147103000Y-85703000I0J250000D01*
G01*
X147103000Y-85028000D01*
G75*
G02*
X147353000Y-84778000I250000J0D01*
G01*
X148303000Y-84778000D01*
G75*
G02*
X148553000Y-85028000I0J-250000D01*
G01*
X148553000Y-85703000D01*
G75*
G02*
X148303000Y-85953000I-250000J0D01*
G01*
G37*
%TD*%
%TO.C,C5*%
G36*
G01*
X148303000Y-90990000D02*
X147353000Y-90990000D01*
G75*
G02*
X147103000Y-90740000I0J250000D01*
G01*
X147103000Y-90065000D01*
G75*
G02*
X147353000Y-89815000I250000J0D01*
G01*
X148303000Y-89815000D01*
G75*
G02*
X148553000Y-90065000I0J-250000D01*
G01*
X148553000Y-90740000D01*
G75*
G02*
X148303000Y-90990000I-250000J0D01*
G01*
G37*
G36*
G01*
X148303000Y-93065000D02*
X147353000Y-93065000D01*
G75*
G02*
X147103000Y-92815000I0J250000D01*
G01*
X147103000Y-92140000D01*
G75*
G02*
X147353000Y-91890000I250000J0D01*
G01*
X148303000Y-91890000D01*
G75*
G02*
X148553000Y-92140000I0J-250000D01*
G01*
X148553000Y-92815000D01*
G75*
G02*
X148303000Y-93065000I-250000J0D01*
G01*
G37*
%TD*%
%TO.C,C4*%
G36*
G01*
X132047000Y-101128500D02*
X131097000Y-101128500D01*
G75*
G02*
X130847000Y-100878500I0J250000D01*
G01*
X130847000Y-100203500D01*
G75*
G02*
X131097000Y-99953500I250000J0D01*
G01*
X132047000Y-99953500D01*
G75*
G02*
X132297000Y-100203500I0J-250000D01*
G01*
X132297000Y-100878500D01*
G75*
G02*
X132047000Y-101128500I-250000J0D01*
G01*
G37*
G36*
G01*
X132047000Y-103203500D02*
X131097000Y-103203500D01*
G75*
G02*
X130847000Y-102953500I0J250000D01*
G01*
X130847000Y-102278500D01*
G75*
G02*
X131097000Y-102028500I250000J0D01*
G01*
X132047000Y-102028500D01*
G75*
G02*
X132297000Y-102278500I0J-250000D01*
G01*
X132297000Y-102953500D01*
G75*
G02*
X132047000Y-103203500I-250000J0D01*
G01*
G37*
%TD*%
%TO.C,C2*%
G36*
G01*
X129954000Y-87953000D02*
X130904000Y-87953000D01*
G75*
G02*
X131154000Y-88203000I0J-250000D01*
G01*
X131154000Y-88878000D01*
G75*
G02*
X130904000Y-89128000I-250000J0D01*
G01*
X129954000Y-89128000D01*
G75*
G02*
X129704000Y-88878000I0J250000D01*
G01*
X129704000Y-88203000D01*
G75*
G02*
X129954000Y-87953000I250000J0D01*
G01*
G37*
G36*
G01*
X129954000Y-85878000D02*
X130904000Y-85878000D01*
G75*
G02*
X131154000Y-86128000I0J-250000D01*
G01*
X131154000Y-86803000D01*
G75*
G02*
X130904000Y-87053000I-250000J0D01*
G01*
X129954000Y-87053000D01*
G75*
G02*
X129704000Y-86803000I0J250000D01*
G01*
X129704000Y-86128000D01*
G75*
G02*
X129954000Y-85878000I250000J0D01*
G01*
G37*
%TD*%
D28*
%TO.C,U5*%
X151765000Y-111680000D03*
D29*
X151765000Y-106680000D03*
%TD*%
D24*
%TO.C,U9*%
X152400000Y-76200000D03*
X152400000Y-78740000D03*
%TD*%
%TO.C,U2*%
X146050000Y-96520000D03*
X143510000Y-96520000D03*
X140970000Y-96520000D03*
X138430000Y-96520000D03*
X135890000Y-96520000D03*
X133350000Y-96520000D03*
X130810000Y-96520000D03*
X128270000Y-96520000D03*
X125730000Y-96520000D03*
%TD*%
D30*
%TO.C,D2*%
X124460000Y-102870000D03*
D31*
X125730000Y-102870000D03*
X127000000Y-102870000D03*
X128270000Y-102870000D03*
%TD*%
D24*
%TO.C,U10*%
X152400000Y-69215000D03*
X152400000Y-71755000D03*
%TD*%
%TO.C,U8*%
X152400000Y-83185000D03*
X152400000Y-85725000D03*
%TD*%
%TO.C,U7*%
X152400000Y-90170000D03*
X152400000Y-92710000D03*
%TD*%
D32*
%TO.C,U6*%
X134335000Y-114085000D03*
X134335000Y-103085000D03*
X146335000Y-103085000D03*
X146335000Y-114085000D03*
%TD*%
D24*
%TO.C,U3*%
X135890000Y-135890000D03*
X135890000Y-133350000D03*
X135890000Y-130810000D03*
X135890000Y-128270000D03*
X135890000Y-125730000D03*
X135890000Y-123190000D03*
X135890000Y-120650000D03*
X135890000Y-118110000D03*
%TD*%
M02*
