%TF.GenerationSoftware,KiCad,Pcbnew,5.1.10*%
%TF.CreationDate,2021-06-27T22:38:49+02:00*%
%TF.ProjectId,fc_v2,66635f76-322e-46b6-9963-61645f706362,rev?*%
%TF.SameCoordinates,Original*%
%TF.FileFunction,Paste,Top*%
%TF.FilePolarity,Positive*%
%FSLAX46Y46*%
G04 Gerber Fmt 4.6, Leading zero omitted, Abs format (unit mm)*
G04 Created by KiCad (PCBNEW 5.1.10) date 2021-06-27 22:38:49*
%MOMM*%
%LPD*%
G01*
G04 APERTURE LIST*
G04 APERTURE END LIST*
%TO.C,R15*%
G36*
G01*
X135439999Y-149260000D02*
X136340001Y-149260000D01*
G75*
G02*
X136590000Y-149509999I0J-249999D01*
G01*
X136590000Y-150210001D01*
G75*
G02*
X136340001Y-150460000I-249999J0D01*
G01*
X135439999Y-150460000D01*
G75*
G02*
X135190000Y-150210001I0J249999D01*
G01*
X135190000Y-149509999D01*
G75*
G02*
X135439999Y-149260000I249999J0D01*
G01*
G37*
G36*
G01*
X135439999Y-147260000D02*
X136340001Y-147260000D01*
G75*
G02*
X136590000Y-147509999I0J-249999D01*
G01*
X136590000Y-148210001D01*
G75*
G02*
X136340001Y-148460000I-249999J0D01*
G01*
X135439999Y-148460000D01*
G75*
G02*
X135190000Y-148210001I0J249999D01*
G01*
X135190000Y-147509999D01*
G75*
G02*
X135439999Y-147260000I249999J0D01*
G01*
G37*
%TD*%
%TO.C,R14*%
G36*
G01*
X154818501Y-101279500D02*
X153918499Y-101279500D01*
G75*
G02*
X153668500Y-101029501I0J249999D01*
G01*
X153668500Y-100329499D01*
G75*
G02*
X153918499Y-100079500I249999J0D01*
G01*
X154818501Y-100079500D01*
G75*
G02*
X155068500Y-100329499I0J-249999D01*
G01*
X155068500Y-101029501D01*
G75*
G02*
X154818501Y-101279500I-249999J0D01*
G01*
G37*
G36*
G01*
X154818501Y-103279500D02*
X153918499Y-103279500D01*
G75*
G02*
X153668500Y-103029501I0J249999D01*
G01*
X153668500Y-102329499D01*
G75*
G02*
X153918499Y-102079500I249999J0D01*
G01*
X154818501Y-102079500D01*
G75*
G02*
X155068500Y-102329499I0J-249999D01*
G01*
X155068500Y-103029501D01*
G75*
G02*
X154818501Y-103279500I-249999J0D01*
G01*
G37*
%TD*%
%TO.C,R12*%
G36*
G01*
X136290000Y-109416001D02*
X136290000Y-108515999D01*
G75*
G02*
X136539999Y-108266000I249999J0D01*
G01*
X137240001Y-108266000D01*
G75*
G02*
X137490000Y-108515999I0J-249999D01*
G01*
X137490000Y-109416001D01*
G75*
G02*
X137240001Y-109666000I-249999J0D01*
G01*
X136539999Y-109666000D01*
G75*
G02*
X136290000Y-109416001I0J249999D01*
G01*
G37*
G36*
G01*
X134290000Y-109416001D02*
X134290000Y-108515999D01*
G75*
G02*
X134539999Y-108266000I249999J0D01*
G01*
X135240001Y-108266000D01*
G75*
G02*
X135490000Y-108515999I0J-249999D01*
G01*
X135490000Y-109416001D01*
G75*
G02*
X135240001Y-109666000I-249999J0D01*
G01*
X134539999Y-109666000D01*
G75*
G02*
X134290000Y-109416001I0J249999D01*
G01*
G37*
%TD*%
%TO.C,R11*%
G36*
G01*
X132911001Y-109471000D02*
X132010999Y-109471000D01*
G75*
G02*
X131761000Y-109221001I0J249999D01*
G01*
X131761000Y-108520999D01*
G75*
G02*
X132010999Y-108271000I249999J0D01*
G01*
X132911001Y-108271000D01*
G75*
G02*
X133161000Y-108520999I0J-249999D01*
G01*
X133161000Y-109221001D01*
G75*
G02*
X132911001Y-109471000I-249999J0D01*
G01*
G37*
G36*
G01*
X132911001Y-111471000D02*
X132010999Y-111471000D01*
G75*
G02*
X131761000Y-111221001I0J249999D01*
G01*
X131761000Y-110520999D01*
G75*
G02*
X132010999Y-110271000I249999J0D01*
G01*
X132911001Y-110271000D01*
G75*
G02*
X133161000Y-110520999I0J-249999D01*
G01*
X133161000Y-111221001D01*
G75*
G02*
X132911001Y-111471000I-249999J0D01*
G01*
G37*
%TD*%
%TO.C,R7*%
G36*
G01*
X146627001Y-101835000D02*
X145726999Y-101835000D01*
G75*
G02*
X145477000Y-101585001I0J249999D01*
G01*
X145477000Y-100884999D01*
G75*
G02*
X145726999Y-100635000I249999J0D01*
G01*
X146627001Y-100635000D01*
G75*
G02*
X146877000Y-100884999I0J-249999D01*
G01*
X146877000Y-101585001D01*
G75*
G02*
X146627001Y-101835000I-249999J0D01*
G01*
G37*
G36*
G01*
X146627001Y-103835000D02*
X145726999Y-103835000D01*
G75*
G02*
X145477000Y-103585001I0J249999D01*
G01*
X145477000Y-102884999D01*
G75*
G02*
X145726999Y-102635000I249999J0D01*
G01*
X146627001Y-102635000D01*
G75*
G02*
X146877000Y-102884999I0J-249999D01*
G01*
X146877000Y-103585001D01*
G75*
G02*
X146627001Y-103835000I-249999J0D01*
G01*
G37*
%TD*%
%TO.C,C3*%
G36*
G01*
X145738000Y-110711000D02*
X145738000Y-109761000D01*
G75*
G02*
X145988000Y-109511000I250000J0D01*
G01*
X146663000Y-109511000D01*
G75*
G02*
X146913000Y-109761000I0J-250000D01*
G01*
X146913000Y-110711000D01*
G75*
G02*
X146663000Y-110961000I-250000J0D01*
G01*
X145988000Y-110961000D01*
G75*
G02*
X145738000Y-110711000I0J250000D01*
G01*
G37*
G36*
G01*
X143663000Y-110711000D02*
X143663000Y-109761000D01*
G75*
G02*
X143913000Y-109511000I250000J0D01*
G01*
X144588000Y-109511000D01*
G75*
G02*
X144838000Y-109761000I0J-250000D01*
G01*
X144838000Y-110711000D01*
G75*
G02*
X144588000Y-110961000I-250000J0D01*
G01*
X143913000Y-110961000D01*
G75*
G02*
X143663000Y-110711000I0J250000D01*
G01*
G37*
%TD*%
%TO.C,U15*%
G36*
G01*
X135319000Y-113991000D02*
X135069000Y-113991000D01*
G75*
G02*
X134944000Y-113866000I0J125000D01*
G01*
X134944000Y-112691000D01*
G75*
G02*
X135069000Y-112566000I125000J0D01*
G01*
X135319000Y-112566000D01*
G75*
G02*
X135444000Y-112691000I0J-125000D01*
G01*
X135444000Y-113866000D01*
G75*
G02*
X135319000Y-113991000I-125000J0D01*
G01*
G37*
G36*
G01*
X136269000Y-113991000D02*
X136019000Y-113991000D01*
G75*
G02*
X135894000Y-113866000I0J125000D01*
G01*
X135894000Y-112691000D01*
G75*
G02*
X136019000Y-112566000I125000J0D01*
G01*
X136269000Y-112566000D01*
G75*
G02*
X136394000Y-112691000I0J-125000D01*
G01*
X136394000Y-113866000D01*
G75*
G02*
X136269000Y-113991000I-125000J0D01*
G01*
G37*
G36*
G01*
X137219000Y-113991000D02*
X136969000Y-113991000D01*
G75*
G02*
X136844000Y-113866000I0J125000D01*
G01*
X136844000Y-112691000D01*
G75*
G02*
X136969000Y-112566000I125000J0D01*
G01*
X137219000Y-112566000D01*
G75*
G02*
X137344000Y-112691000I0J-125000D01*
G01*
X137344000Y-113866000D01*
G75*
G02*
X137219000Y-113991000I-125000J0D01*
G01*
G37*
G36*
G01*
X137219000Y-111716000D02*
X136969000Y-111716000D01*
G75*
G02*
X136844000Y-111591000I0J125000D01*
G01*
X136844000Y-110416000D01*
G75*
G02*
X136969000Y-110291000I125000J0D01*
G01*
X137219000Y-110291000D01*
G75*
G02*
X137344000Y-110416000I0J-125000D01*
G01*
X137344000Y-111591000D01*
G75*
G02*
X137219000Y-111716000I-125000J0D01*
G01*
G37*
G36*
G01*
X135319000Y-111716000D02*
X135069000Y-111716000D01*
G75*
G02*
X134944000Y-111591000I0J125000D01*
G01*
X134944000Y-110416000D01*
G75*
G02*
X135069000Y-110291000I125000J0D01*
G01*
X135319000Y-110291000D01*
G75*
G02*
X135444000Y-110416000I0J-125000D01*
G01*
X135444000Y-111591000D01*
G75*
G02*
X135319000Y-111716000I-125000J0D01*
G01*
G37*
%TD*%
%TO.C,D7*%
G36*
G01*
X132022001Y-105332000D02*
X131121999Y-105332000D01*
G75*
G02*
X130872000Y-105082001I0J249999D01*
G01*
X130872000Y-104431999D01*
G75*
G02*
X131121999Y-104182000I249999J0D01*
G01*
X132022001Y-104182000D01*
G75*
G02*
X132272000Y-104431999I0J-249999D01*
G01*
X132272000Y-105082001D01*
G75*
G02*
X132022001Y-105332000I-249999J0D01*
G01*
G37*
G36*
G01*
X132022001Y-107382000D02*
X131121999Y-107382000D01*
G75*
G02*
X130872000Y-107132001I0J249999D01*
G01*
X130872000Y-106481999D01*
G75*
G02*
X131121999Y-106232000I249999J0D01*
G01*
X132022001Y-106232000D01*
G75*
G02*
X132272000Y-106481999I0J-249999D01*
G01*
X132272000Y-107132001D01*
G75*
G02*
X132022001Y-107382000I-249999J0D01*
G01*
G37*
%TD*%
%TO.C,D5*%
G36*
G01*
X136328999Y-106232000D02*
X137229001Y-106232000D01*
G75*
G02*
X137479000Y-106481999I0J-249999D01*
G01*
X137479000Y-107132001D01*
G75*
G02*
X137229001Y-107382000I-249999J0D01*
G01*
X136328999Y-107382000D01*
G75*
G02*
X136079000Y-107132001I0J249999D01*
G01*
X136079000Y-106481999D01*
G75*
G02*
X136328999Y-106232000I249999J0D01*
G01*
G37*
G36*
G01*
X136328999Y-104182000D02*
X137229001Y-104182000D01*
G75*
G02*
X137479000Y-104431999I0J-249999D01*
G01*
X137479000Y-105082001D01*
G75*
G02*
X137229001Y-105332000I-249999J0D01*
G01*
X136328999Y-105332000D01*
G75*
G02*
X136079000Y-105082001I0J249999D01*
G01*
X136079000Y-104431999D01*
G75*
G02*
X136328999Y-104182000I249999J0D01*
G01*
G37*
%TD*%
M02*
